<?xml version="1.0" encoding="UTF-8" standalone="no"?><!DOCTYPE svg PUBLIC "-//W3C//DTD SVG 1.1//EN" "http://www.w3.org/Graphics/SVG/1.1/DTD/svg11.dtd"><svg width="100%" height="100%" viewBox="0 0 24 24" version="1.1" xmlns="http://www.w3.org/2000/svg" xmlns:xlink="http://www.w3.org/1999/xlink" xml:space="preserve" xmlns:serif="http://www.serif.com/" style="fill-rule:evenodd;clip-rule:evenodd;stroke-linejoin:round;stroke-miterlimit:2;"><g><rect x="0" y="0" width="24" height="24" style="fill:#fff;fill-opacity:0;"/><path d="M5.513,6.543c-0.045,-2.801 2.785,-5.101 6.321,-5.136c3.536,-0.036 6.439,2.205 6.484,5.006c0.001,0.022 0.001,0.043 0.001,0.065l-12.806,0.065Z" style="fill:#78c557;"/><path d="M8.588,4.087c-0.001,-0.352 0.289,-0.637 0.646,-0.637c0.358,0 0.647,0.285 0.647,0.637c0,0.353 -0.289,0.638 -0.647,0.638c-0.357,0 -0.647,-0.285 -0.647,-0.638Z" style="fill:#fff;"/><path d="M13.987,4.087c0,-0.352 0.294,-0.637 0.657,-0.637c0.362,0 0.656,0.285 0.656,0.637c-0,0.353 -0.294,0.638 -0.656,0.638c-0.363,0 -0.657,-0.285 -0.657,-0.638Z" style="fill:#fff;"/><path d="M7.754,0.364c-0.062,-0.085 -0.043,-0.205 0.043,-0.267c0.085,-0.061 0.204,-0.042 0.266,0.043l1.344,1.857c0.062,0.085 0.043,0.205 -0.043,0.266c-0.085,0.062 -0.205,0.043 -0.266,-0.042l-1.344,-1.857Z" style="fill:#78c557;"/><path d="M16.105,0.364c0.061,-0.086 0.042,-0.205 -0.043,-0.267c-0.085,-0.061 -0.205,-0.042 -0.267,0.043l-1.343,1.857c-0.062,0.085 -0.043,0.205 0.042,0.266l0,0c0.086,0.062 0.205,0.043 0.267,-0.042l1.344,-1.857Z" style="fill:#78c557;"/><path d="M17.089,19.125l-10.347,0c-0.679,0 -1.229,-0.55 -1.229,-1.23l-0,-10.358l12.806,0.001l-0,10.357c-0,0.68 -0.551,1.23 -1.23,1.23Z" style="fill:#78c557;"/><path d="M7.988,17.991c-0.001,-0.751 0.608,-1.36 1.359,-1.36c0.751,0 1.359,0.609 1.359,1.36l0,4.65c0,0.75 -0.608,1.359 -1.359,1.359c-0.751,0 -1.36,-0.609 -1.36,-1.359l0,-4.65Z" style="fill:#78c557;"/><path d="M13.2,17.991c-0,-0.751 0.609,-1.36 1.359,-1.36c0.751,0 1.36,0.609 1.36,1.36l-0,4.65c-0,0.75 -0.609,1.359 -1.36,1.359c-0.75,0 -1.359,-0.609 -1.359,-1.359l-0,-4.65Z" style="fill:#78c557;"/><path d="M19.331,8.897c0,-0.751 0.609,-1.36 1.36,-1.36c0.75,0 1.359,0.609 1.359,1.36l0,6.056c0,0.751 -0.609,1.36 -1.359,1.36c-0.751,-0 -1.36,-0.609 -1.36,-1.36l0,-6.056Z" style="fill:#78c557;"/><path d="M1.875,8.934c0,-0.75 0.609,-1.359 1.359,-1.359c0.751,-0 1.36,0.609 1.36,1.359l-0,6.057c-0,0.75 -0.609,1.359 -1.36,1.359c-0.75,-0 -1.359,-0.609 -1.359,-1.359l0,-6.057Z" style="fill:#78c557;"/></g></svg>