<svg width="100%" height="100%" viewBox="0 0 24 24" version="1.1" xmlns="http://www.w3.org/2000/svg"><path d="M22.932,5.96l-0.008,0.012l0.016,-0l-0.026,0.014l-3.211,4.847l-0.798,-1.482c-2.996,2.079 -5.853,5.024 -6.579,7.929c-0.11,0.445 -0.512,0.76 -0.97,0.76c-0.458,-0 -0.861,-0.315 -0.971,-0.76c-0.426,-1.704 -1.655,-3.635 -3.242,-5.138c-1.587,-1.503 -3.521,-2.563 -5.196,-2.752c-0.544,-0.062 -0.942,-0.561 -0.88,-1.106c0.056,-0.503 0.487,-0.889 0.993,-0.889c0.038,0 0.075,0.002 0.112,0.007c2.299,0.259 4.523,1.562 6.346,3.289c1.196,1.133 2.106,2.481 2.828,3.882c1.439,-2.814 3.985,-5.219 6.603,-6.998l-0.855,-1.589l5.812,-0.014l0.026,-0.012Zm-17.738,12.943c0.006,0.012 0.042,0.083 0.212,0.22c0.241,0.193 0.697,0.437 1.301,0.643c1.209,0.41 2.998,0.691 4.975,0.691c1.976,0 3.765,-0.281 4.974,-0.691c0.605,-0.206 1.061,-0.45 1.301,-0.643c0.173,-0.139 0.208,-0.211 0.214,-0.223c-0.006,-0.073 -0.076,-0.302 -0.505,-0.609c-0.452,-0.323 -1.258,-0.67 -2.414,-0.867c-0.54,-0.093 -0.908,-0.613 -0.816,-1.153c0.091,-0.54 0.611,-0.909 1.152,-0.818c1.376,0.235 2.45,0.644 3.24,1.209c0.791,0.565 1.345,1.348 1.344,2.252c-0.001,0.748 -0.446,1.352 -0.963,1.768c-0.518,0.415 -1.159,0.721 -1.91,0.976c-1.502,0.511 -3.457,0.799 -5.617,0.799c-2.161,-0 -4.115,-0.288 -5.618,-0.799c-0.751,-0.255 -1.392,-0.561 -1.91,-0.976c-0.517,-0.416 -0.963,-1.021 -0.963,-1.77l0,-0.004c0.004,-0.866 0.517,-1.657 1.288,-2.219c0.77,-0.562 1.821,-0.963 3.193,-1.197c0.54,-0.091 1.06,0.278 1.152,0.819c0.093,0.54 -0.276,1.061 -0.816,1.154c-1.158,0.197 -1.93,0.533 -2.35,0.84c-0.403,0.294 -0.46,0.497 -0.464,0.598Z" style="fill:#777;"/></svg>