<?xml version="1.0" encoding="UTF-8" standalone="no"?>
<svg
   viewBox="0 0 24 24"
   version="1.1"
   id="svg1"
   sodipodi:docname="bounce.svg"
   inkscape:version="1.4 (86a8ad7, 2024-10-11)"
   xmlns:inkscape="http://www.inkscape.org/namespaces/inkscape"
   xmlns:sodipodi="http://sodipodi.sourceforge.net/DTD/sodipodi-0.dtd"
   xmlns="http://www.w3.org/2000/svg"
   xmlns:svg="http://www.w3.org/2000/svg"
   xmlns:rdf="http://www.w3.org/1999/02/22-rdf-syntax-ns#"
   xmlns:cc="http://creativecommons.org/ns#"
   xmlns:dc="http://purl.org/dc/elements/1.1/">
  <defs
     id="defs1" />
  <sodipodi:namedview
     id="namedview1"
     pagecolor="#505050"
     bordercolor="#ffffff"
     borderopacity="1"
     inkscape:showpageshadow="0"
     inkscape:pageopacity="0"
     inkscape:pagecheckerboard="1"
     inkscape:deskcolor="#505050"
     showgrid="false"
     showguides="true"
     inkscape:zoom="45.17"
     inkscape:cx="11.932699"
     inkscape:cy="11.667036"
     inkscape:window-width="2880"
     inkscape:window-height="1526"
     inkscape:window-x="2869"
     inkscape:window-y="-11"
     inkscape:window-maximized="1"
     inkscape:current-layer="svg1" />
  <title
     id="title1">arrow-down-left</title>
  <metadata
     id="metadata1">
    <rdf:RDF>
      <cc:Work
         rdf:about="">
        <dc:title>arrow-down-left</dc:title>
      </cc:Work>
    </rdf:RDF>
  </metadata>
  <path
     id="path5"
     style="display:inline;stroke-linecap:round;stroke-linejoin:round;fill:#666666"
     d="m 22.931849,5.9601427 -0.02539,0.011719 -5.8125,0.013672 0.855469,1.5898437 C 15.330756,9.3543246 12.785051,11.75936 11.345911,14.573424 10.624405,13.172349 9.7143282,11.824042 8.5177866,10.690612 6.6950096,8.9639776 4.4705243,7.660822 2.1720834,7.401549 a 1,1 0 0 0 -1.1054687,0.8828126 1,1 0 0 0 0.8808594,1.105469 c 1.6749782,0.188944 3.6084113,1.2487544 5.1953125,2.7519534 1.5869012,1.503199 2.8163316,3.434551 3.2421874,5.138672 a 1.0001,1.0001 0 0 0 1.941406,0 c 0.726056,-2.905413 3.583028,-5.850154 6.578125,-7.9296884 l 0.798828,1.4824224 3.210938,-4.8476566 0.02539,-0.013672 h -0.01563 z" />
  <path
     style="stroke-linecap:round;stroke-linejoin:round;fill:#666666"
     d="m 15.587891,15.453125 a 1,1 0 0 0 -1.152344,0.818359 1,1 0 0 0 0.816406,1.152344 c 1.156437,0.197324 1.961737,0.544039 2.414063,0.867188 0.452326,0.323148 0.505938,0.560754 0.505859,0.61914 a 1.0001,1.0001 0 0 0 0,0.002 c 2e-6,-0.0463 0.02551,0.01787 -0.214844,0.210938 -0.240358,0.19307 -0.696402,0.437231 -1.300781,0.642578 -1.208759,0.410694 -2.997996,0.691337 -4.974609,0.691406 C 9.7050274,20.456962 7.9157902,20.176319 6.7070312,19.765625 6.1026518,19.560278 5.6466082,19.316117 5.40625,19.123047 5.1680967,18.931748 5.1929184,18.870194 5.1933594,18.914062 c 6.635e-4,-0.09587 0.046068,-0.303946 0.4648437,-0.609375 0.4202715,-0.306519 1.192284,-0.642512 2.3496094,-0.839843 A 1,1 0 0 0 8.8242188,16.310547 1,1 0 0 0 7.671875,15.492188 c -1.3720499,0.233943 -2.4228357,0.635294 -3.1933594,1.197265 -0.7705236,0.561972 -1.2840155,1.352686 -1.2871093,2.21875 a 1.0001,1.0001 0 0 0 0,0.0039 c 3.64e-5,0.749017 0.4452013,1.353693 0.9628906,1.769532 0.5176892,0.415838 1.1590879,0.721375 1.9101562,0.976562 1.5021367,0.510374 3.4569818,0.798753 5.6171879,0.798828 2.160205,-7.5e-5 4.115051,-0.288454 5.617187,-0.798828 0.751068,-0.255187 1.392467,-0.560723 1.910156,-0.976562 0.517226,-0.415467 0.96206,-1.019489 0.962891,-1.767579 0.0012,-0.904344 -0.553226,-1.687191 -1.34375,-2.251953 -0.790524,-0.564762 -1.864356,-0.974217 -3.240234,-1.208984 z"
     id="path6" />
</svg>
