<?xml version="1.0" encoding="UTF-8" standalone="no"?><!DOCTYPE svg PUBLIC "-//W3C//DTD SVG 1.1//EN" "http://www.w3.org/Graphics/SVG/1.1/DTD/svg11.dtd"><svg width="100%" height="100%" viewBox="0 0 24 24" version="1.1" xmlns="http://www.w3.org/2000/svg" xmlns:xlink="http://www.w3.org/1999/xlink" xml:space="preserve" xmlns:serif="http://www.serif.com/" style="fill-rule:evenodd;clip-rule:evenodd;stroke-linejoin:round;stroke-miterlimit:2;"><g id="starting-collection"><g id="Build-Icons"><g id="build-icons-Stable" serif:id="build-icons/Stable"><g id="Logo"><path id="Head" d="M21.486,5.745l0.561,-1.378c0,-0 -0.714,-0.766 -1.581,-1.634c-0.867,-0.868 -2.703,-0.358 -2.703,-0.358l-2.091,-2.375l-7.344,0l-2.091,2.375c-0,0 -1.836,-0.51 -2.703,0.358c-0.867,0.868 -1.581,1.634 -1.581,1.634l0.561,1.378l-0.714,2.043c-0,-0 2.1,7.964 2.346,8.936c0.484,1.915 0.816,2.655 2.193,3.626c1.377,0.97 3.876,2.655 4.284,2.91c0.408,0.256 0.918,0.691 1.377,0.691c0.459,-0 0.969,-0.435 1.377,-0.691c0.408,-0.255 2.907,-1.94 4.284,-2.91c1.377,-0.971 1.709,-1.711 2.193,-3.626c0.246,-0.972 2.346,-8.936 2.346,-8.936l-0.714,-2.043Z" style="fill:url(#_Linear1);"/><path id="Face" d="M17.177,3.882c-0,-0 2.689,3.255 2.689,3.951c0,0.695 -0.338,0.879 -0.678,1.241c-0.341,0.361 -1.826,1.941 -2.017,2.144c-0.191,0.203 -0.588,0.51 -0.354,1.064c0.233,0.553 0.578,1.258 0.195,1.972c-0.384,0.715 -1.04,1.192 -1.461,1.113c-0.421,-0.079 -1.409,-0.596 -1.772,-0.832c-0.364,-0.236 -1.515,-1.187 -1.515,-1.551c-0,-0.364 1.19,-1.017 1.41,-1.166c0.22,-0.148 1.223,-0.723 1.244,-0.948c0.02,-0.226 0.012,-0.292 -0.284,-0.849c-0.296,-0.557 -0.829,-1.301 -0.74,-1.796c0.089,-0.494 0.948,-0.752 1.562,-0.984c0.614,-0.232 1.795,-0.67 1.943,-0.738c0.147,-0.068 0.109,-0.133 -0.338,-0.176c-0.447,-0.042 -1.716,-0.211 -2.288,-0.051c-0.572,0.16 -1.549,0.403 -1.628,0.531c-0.079,0.129 -0.149,0.133 -0.068,0.578c0.082,0.444 0.5,2.576 0.541,2.954c0.04,0.379 0.12,0.629 -0.288,0.723c-0.408,0.093 -1.094,0.255 -1.33,0.255c-0.236,0 -0.922,-0.162 -1.33,-0.255c-0.408,-0.094 -0.328,-0.344 -0.288,-0.723c0.041,-0.378 0.459,-2.51 0.541,-2.954c0.081,-0.445 0.011,-0.449 -0.068,-0.578c-0.079,-0.128 -1.056,-0.371 -1.628,-0.531c-0.572,-0.16 -1.841,0.009 -2.288,0.051c-0.447,0.043 -0.485,0.108 -0.338,0.176c0.148,0.068 1.329,0.506 1.943,0.738c0.613,0.232 1.473,0.49 1.562,0.984c0.089,0.495 -0.444,1.239 -0.74,1.796c-0.296,0.557 -0.304,0.623 -0.284,0.849c0.021,0.225 1.024,0.8 1.244,0.948c0.22,0.149 1.41,0.802 1.41,1.166c0,0.364 -1.151,1.315 -1.515,1.551c-0.363,0.236 -1.351,0.753 -1.772,0.832c-0.421,0.079 -1.077,-0.398 -1.461,-1.113c-0.383,-0.714 -0.038,-1.419 0.195,-1.972c0.234,-0.554 -0.163,-0.861 -0.354,-1.064c-0.191,-0.203 -1.676,-1.783 -2.017,-2.144c-0.34,-0.362 -0.678,-0.546 -0.678,-1.241c-0,-0.696 2.689,-3.951 2.689,-3.951c0,-0 2.27,0.434 2.576,0.434c0.306,-0 0.969,-0.256 1.581,-0.46c0.612,-0.204 1.02,-0.206 1.02,-0.206c0,0 0.408,0.002 1.02,0.206c0.612,0.204 1.275,0.46 1.581,0.46c0.306,-0 2.576,-0.434 2.576,-0.434Zm-2.017,12.452c0.167,0.104 0.065,0.301 -0.086,0.408c-0.152,0.108 -2.19,1.688 -2.388,1.862c-0.198,0.175 -0.488,0.464 -0.686,0.464c-0.198,-0 -0.488,-0.289 -0.686,-0.464c-0.198,-0.174 -2.236,-1.754 -2.388,-1.862c-0.151,-0.107 -0.253,-0.304 -0.086,-0.408c0.166,-0.104 0.687,-0.368 1.406,-0.74c0.718,-0.373 1.614,-0.689 1.754,-0.689c0.14,-0 1.035,0.316 1.754,0.689c0.719,0.372 1.24,0.636 1.406,0.74Z" style="fill:#fff;"/><path id="Top-Head" d="M17.763,2.375l-2.091,-2.375l-7.344,0l-2.091,2.375c-0,0 -1.836,-0.51 -2.703,0.358c-0,-0 2.448,-0.222 3.289,1.149c0,-0 2.27,0.434 2.576,0.434c0.306,-0 0.969,-0.256 1.581,-0.46c0.612,-0.204 1.02,-0.206 1.02,-0.206c0,0 0.408,0.002 1.02,0.206c0.612,0.204 1.275,0.46 1.581,0.46c0.306,-0 2.576,-0.434 2.576,-0.434c0.841,-1.371 3.289,-1.149 3.289,-1.149c-0.867,-0.868 -2.703,-0.358 -2.703,-0.358" style="fill:url(#_Linear2);"/></g></g></g></g><defs><linearGradient id="_Linear1" x1="0" y1="0" x2="1" y2="0" gradientUnits="userSpaceOnUse" gradientTransform="matrix(20.4,0,0,20.4,1.8,12.1443)"><stop offset="0" style="stop-color:#f50;stop-opacity:1"/><stop offset="0.41" style="stop-color:#f50;stop-opacity:1"/><stop offset="0.58" style="stop-color:#ff2000;stop-opacity:1"/><stop offset="1" style="stop-color:#ff2000;stop-opacity:1"/></linearGradient><linearGradient id="_Linear2" x1="0" y1="0" x2="1" y2="0" gradientUnits="userSpaceOnUse" gradientTransform="matrix(16.5682,0,0,16.5682,3.89777,2.18828)"><stop offset="0" style="stop-color:#ff452a;stop-opacity:1"/><stop offset="1" style="stop-color:#ff2000;stop-opacity:1"/></linearGradient></defs></svg>