<?xml version="1.0" encoding="UTF-8" standalone="no"?><!DOCTYPE svg PUBLIC "-//W3C//DTD SVG 1.1//EN" "http://www.w3.org/Graphics/SVG/1.1/DTD/svg11.dtd"><svg width="100%" height="100%" viewBox="0 0 24 24" version="1.1" xmlns="http://www.w3.org/2000/svg" xmlns:xlink="http://www.w3.org/1999/xlink" xml:space="preserve" xmlns:serif="http://www.serif.com/" style="fill-rule:evenodd;clip-rule:evenodd;stroke-linejoin:round;stroke-miterlimit:2;"><g id="g12"><circle id="path27" cx="12" cy="12" r="12" style="fill:#fff;"/><path id="path11" d="M2.92,16.144l0,-8.246c0,-0.628 0.418,-1.34 1.004,-1.674l7.494,-4.647l-0,4.562l-4.354,2.637c-0.418,0.252 -0.67,0.712 -0.67,1.131l0,4.605c0,0.418 0.21,0.837 0.503,1.004l4.521,2.679l-0,4.228l-7.744,-4.771c-0.419,-0.293 -0.754,-0.922 -0.754,-1.508Z" style="fill-rule:nonzero;"/><path id="path12" d="M12.674,22.423l-0,-4.228l4.521,-2.679c0.293,-0.168 0.502,-0.586 0.502,-1.004l-0,-4.605c-0,-0.419 -0.252,-0.879 -0.67,-1.131l-4.353,-2.637l-0,-4.562l7.493,4.646c0.586,0.335 1.004,1.047 1.004,1.674l0,8.247c0,0.586 -0.334,1.214 -0.753,1.507l-7.744,4.772l-0,0Z" style="fill-rule:nonzero;"/></g></svg>