<?xml version="1.0" encoding="UTF-8" standalone="no"?>
<svg
   id="Layer_2"
   data-name="Layer 2"
   viewBox="0 0 24 24.000001"
   version="1.1"
   sodipodi:docname="ccbot.svg"
   width="24"
   height="24"
   inkscape:version="1.4 (86a8ad7, 2024-10-11)"
   xmlns:inkscape="http://www.inkscape.org/namespaces/inkscape"
   xmlns:sodipodi="http://sodipodi.sourceforge.net/DTD/sodipodi-0.dtd"
   xmlns="http://www.w3.org/2000/svg"
   xmlns:svg="http://www.w3.org/2000/svg">
  <sodipodi:namedview
     id="namedview27"
     pagecolor="#505050"
     bordercolor="#ffffff"
     borderopacity="1"
     inkscape:showpageshadow="0"
     inkscape:pageopacity="0"
     inkscape:pagecheckerboard="1"
     inkscape:deskcolor="#505050"
     showgrid="false"
     inkscape:zoom="3.75"
     inkscape:cx="235.46667"
     inkscape:cy="146.66667"
     inkscape:window-width="2880"
     inkscape:window-height="1526"
     inkscape:window-x="2869"
     inkscape:window-y="-11"
     inkscape:window-maximized="1"
     inkscape:current-layer="Layer_2" />
  <defs
     id="defs1">
    <style
       id="style1">
      .cls-1 {
        fill: #103;
      }

      .cls-2 {
        fill: #152a47;
      }
    </style>
  </defs>
  <g
     id="g12"
     style="fill:#000000"
     transform="scale(0.08)">
    <circle
       style="fill:#ffffff;fill-opacity:1;stroke:none;stroke-width:0.667;stroke-linecap:round;stroke-linejoin:round"
       id="path27"
       cx="150"
       cy="150"
       r="150" />
    <path
       shape-rendering="auto"
       class="cls-1"
       d="M 36.500133,201.80397 V 98.724944 c 0,-7.853926 5.229297,-16.745727 12.554306,-20.927169 L 142.72273,19.706668 V 76.739941 L 88.304108,109.70248 c -5.229298,3.14356 -8.372864,8.8918 -8.372864,14.13107 v 57.56219 c 0,5.2293 2.614649,10.46858 6.277153,12.55431 l 56.514333,33.49145 v 52.85183 L 45.920852,220.64541 c -5.229297,-3.6625 -9.420719,-11.51643 -9.420719,-18.84144 z"
       id="path11"
       style="fill:#000000;stroke-width:0.997958" />
    <path
       shape-rendering="auto"
       class="cls-1"
       d="M 158.42061,280.29333 V 227.4415 l 56.51433,-33.49145 c 3.6625,-2.09571 6.27715,-7.32501 6.27715,-12.55431 v -57.56219 c 0,-5.22929 -3.14356,-10.98751 -8.37286,-14.13107 L 158.42061,76.739941 V 19.706668 l 93.66829,58.081128 c 7.32501,4.181442 12.5543,13.083223 12.5543,20.927169 V 201.794 c 0,7.325 -4.18144,15.17893 -9.42072,18.84143 l -96.80187,59.64792 z"
       id="path12"
       style="fill:#000000;stroke-width:0.997958" />
  </g>
</svg>
