<?xml version="1.0" encoding="UTF-8" standalone="no"?>
<svg
   version="1.1"
   id="svg44"
   width="23.999998"
   height="23.999998"
   viewBox="0 0 23.999998 23.999998"
   sodipodi:docname="chromium.svg"
   inkscape:version="1.4 (86a8ad7, 2024-10-11)"
   xmlns:inkscape="http://www.inkscape.org/namespaces/inkscape"
   xmlns:sodipodi="http://sodipodi.sourceforge.net/DTD/sodipodi-0.dtd"
   xmlns:xlink="http://www.w3.org/1999/xlink"
   xmlns="http://www.w3.org/2000/svg"
   xmlns:svg="http://www.w3.org/2000/svg">
  <sodipodi:namedview
     id="namedview1"
     pagecolor="#505050"
     bordercolor="#ffffff"
     borderopacity="1"
     inkscape:showpageshadow="0"
     inkscape:pageopacity="0"
     inkscape:pagecheckerboard="1"
     inkscape:deskcolor="#505050"
     showgrid="false"
     inkscape:zoom="48.03877"
     inkscape:cx="12.614811"
     inkscape:cy="12.031948"
     inkscape:window-width="2880"
     inkscape:window-height="1526"
     inkscape:window-x="2869"
     inkscape:window-y="-11"
     inkscape:window-maximized="1"
     inkscape:current-layer="svg44" />
  <defs
     id="defs18">
    <linearGradient
       xlink:href="#linearGradient4975"
       id="linearGradient4633"
       gradientUnits="userSpaceOnUse"
       gradientTransform="matrix(10.857777,0,0,10.857728,5.2084407,7.4999222)"
       x2="0.5565635"
       x1="0.46521288"
       y1="-0.67390651"
       y2="0.81129867" />
    <linearGradient
       id="linearGradient4975">
      <stop
         style="stop-color:#1972e7"
         offset="0"
         id="stop4971" />
      <stop
         style="stop-color:#1969d5"
         offset="1"
         id="stop4973" />
    </linearGradient>
    <linearGradient
       xlink:href="#3"
       id="linearGradient1331"
       x1="101.74381"
       y1="33.726189"
       x2="101.59915"
       y2="135.466"
       gradientUnits="userSpaceOnUse"
       gradientTransform="matrix(0.17716569,0,0,0.1771649,7.1043498e-5,1.7712943e-4)" />
    <linearGradient
       id="3"
       x2="1"
       gradientTransform="matrix(61.286,0,0,61.286,29.399,42.333)"
       gradientUnits="userSpaceOnUse">
      <stop
         offset="0"
         id="stop1397"
         style="stop-color:#afccfb" />
      <stop
         offset="1"
         id="stop1399"
         style="stop-color:#8bb5f8" />
    </linearGradient>
    <linearGradient
       xlink:href="#1"
       id="linearGradient2962"
       gradientUnits="userSpaceOnUse"
       gradientTransform="matrix(4.4500478,7.7077364,-7.7077707,4.4500281,4.5730717,8.1382472)"
       x2="1.7695541"
       x1="0.018202547"
       y1="-0.51170158"
       y2="0.4994337" />
    <linearGradient
       id="1"
       x2="1"
       gradientTransform="matrix(25.118,43.506,-43.506,25.118,25.812,45.935)"
       gradientUnits="userSpaceOnUse">
      <stop
         offset="0"
         id="stop3122"
         style="stop-color:#659cf6" />
      <stop
         offset="1"
         id="stop3124"
         style="stop-color:#4285f4" />
    </linearGradient>
    <linearGradient
       xlink:href="#2"
       id="linearGradient2688"
       x1="67.452377"
       y1="40.320694"
       x2="67.733002"
       y2="95.25"
       gradientUnits="userSpaceOnUse"
       gradientTransform="matrix(0.17716569,0,0,0.1771649,7.0334727e-5,1.7712943e-4)" />
    <linearGradient
       id="2">
      <stop
         style="stop-color:#3680f0"
         offset="0"
         id="stop2682" />
      <stop
         style="stop-color:#2678ec"
         offset="1"
         id="stop2684" />
    </linearGradient>
  </defs>
  <path
     d="m 12.000034,12.000087 5.19627,2.999935 -5.19627,8.999976 c 6.627415,0 11.999964,-5.372526 11.999964,-11.999911 0,-2.1863912 -0.587623,-4.2344179 -1.60932,-6.000043 H 11.99991 Z"
     id="path34-4"
     style="fill:url(#linearGradient1331);stroke-width:0.0468764" />
  <path
     d="M 11.99991,0 C 7.5583663,0 3.6833982,2.4147577 1.6084336,6.0014611 L 6.8036401,15.000021 11.99991,12.000087 V 6.000044 H 22.390678 C 20.315359,2.4142262 16.440923,0 11.99991,0 Z"
     id="path36-1"
     style="fill:url(#linearGradient4633);stroke-width:0.0468764" />
  <path
     d="m 7.0866305e-5,12.000087 c 0,6.627385 5.372372433695,11.999911 11.999964133695,11.999911 L 17.196304,15.000021 12.000035,12.000087 6.8037648,15.000021 1.6085582,6.0014611 C 0.58742826,7.7665907 0,9.813873 0,11.999911"
     id="path38-7"
     style="fill:url(#linearGradient2962);stroke-width:0.0468764" />
  <path
     d="m 18.000105,12.000087 c 0,3.313693 -2.686364,6.000044 -6.000071,6.000044 -3.3137072,0 -6.0000702,-2.686351 -6.0000702,-6.000044 0,-3.3136917 2.686363,-6.000043 6.0000702,-6.000043 3.313707,0 6.000071,2.6863513 6.000071,6.000043"
     fill="#ffffff"
     id="path40"
     style="stroke-width:0.0468764" />
  <path
     d="m 16.875102,12.000087 c 0,2.692376 -2.182681,4.875047 -4.875068,4.875047 -2.692387,0 -4.8750685,-2.182671 -4.8750685,-4.875047 0,-2.6923744 2.1826815,-4.875046 4.8750685,-4.875046 2.692387,0 4.875068,2.1826716 4.875068,4.875046"
     id="path42-5"
     style="fill:url(#linearGradient2688);stroke-width:0.0468764" />
</svg>
