<?xml version="1.0" encoding="UTF-8" standalone="no"?><!DOCTYPE svg PUBLIC "-//W3C//DTD SVG 1.1//EN" "http://www.w3.org/Graphics/SVG/1.1/DTD/svg11.dtd"><svg width="100%" height="100%" viewBox="0 0 24 24" version="1.1" xmlns="http://www.w3.org/2000/svg" xmlns:xlink="http://www.w3.org/1999/xlink" xml:space="preserve" xmlns:serif="http://www.serif.com/" style="fill-rule:evenodd;clip-rule:evenodd;stroke-linecap:round;stroke-linejoin:round;stroke-miterlimit:2;"><path d="M21.873,7.119c-1.86,-3.743 -5.696,-6.119 -9.876,-6.119c-3.654,0 -7.078,1.815 -9.129,4.839l4.431,7.679c-0.15,-0.478 -0.227,-0.977 -0.227,-1.477c0,-2.675 2.181,-4.885 4.856,-4.922" style="fill:none;fill-rule:nonzero;stroke:#b87069;stroke-width:1.97px;"/><path d="M2.868,5.839c-1.218,1.816 -1.868,3.954 -1.868,6.14c0,5.714 4.443,10.529 10.14,10.99l4.628,-7.876c-0.935,1.133 -2.329,1.79 -3.798,1.79c-2.114,-0 -4.002,-1.361 -4.671,-3.365" style="fill:none;fill-rule:nonzero;stroke:#5aa65d;stroke-width:1.97px;"/><path d="M11.14,22.969c0.276,0.021 0.554,0.031 0.831,0.031c6.051,0 11.029,-4.977 11.029,-11.026c0,-1.683 -0.385,-3.344 -1.127,-4.855l-9.945,0c2.692,0.012 4.9,2.231 4.9,4.922c0,1.107 -0.373,2.183 -1.06,3.052" style="fill:none;fill-rule:nonzero;stroke:#ddc65c;stroke-width:1.97px;"/><path d="M11.946,8.536c1.882,-0 3.41,1.527 3.41,3.409c0,1.881 -1.528,3.409 -3.41,3.409c-1.882,-0 -3.41,-1.528 -3.41,-3.409c-0,-1.882 1.528,-3.409 3.41,-3.409Zm-0,1.597c-1.001,-0 -1.813,0.811 -1.813,1.812c-0,1 0.812,1.812 1.813,1.812c1.001,-0 1.813,-0.812 1.813,-1.812c0,-1.001 -0.812,-1.812 -1.813,-1.812Z" style="fill:#4080b0;"/></svg>