<?xml version="1.0" encoding="UTF-8" standalone="no"?><!DOCTYPE svg PUBLIC "-//W3C//DTD SVG 1.1//EN" "http://www.w3.org/Graphics/SVG/1.1/DTD/svg11.dtd"><svg width="100%" height="100%" viewBox="0 0 24 24" version="1.1" xmlns="http://www.w3.org/2000/svg" xmlns:xlink="http://www.w3.org/1999/xlink" xml:space="preserve" xmlns:serif="http://www.serif.com/" style="fill-rule:evenodd;clip-rule:evenodd;"><path d="M19.51,14.165c0,-4.105 -3.378,-7.483 -7.483,-7.483c-4.105,-0 -7.484,3.378 -7.484,7.483l2.139,-0c-0,-2.932 2.412,-5.345 5.345,-5.345c2.932,-0 5.345,2.413 5.345,5.345" style="fill-opacity:0.1;fill-rule:nonzero;"/><circle cx="11.973" cy="11.984" r="4.811" style="fill:url(#_Radial1);stroke:url(#_Radial2);stroke-width:0.96px;"/><path d="M22.717,6.682c-2.02,-4.065 -6.184,-6.645 -10.722,-6.645c-3.967,0 -7.684,1.971 -9.91,5.255l4.81,8.338c-0.163,-0.519 -0.246,-1.06 -0.246,-1.604c-0,-2.904 2.367,-5.304 5.271,-5.344" style="fill:url(#_Radial3);fill-rule:nonzero;"/><path d="M2.085,5.292c-1.322,1.972 -2.028,4.293 -2.028,6.667c-0,6.205 4.823,11.434 11.008,11.934l5.024,-8.552c-1.015,1.23 -2.528,1.943 -4.123,1.943c-2.295,0 -4.345,-1.477 -5.071,-3.654" style="fill:url(#_Radial4);fill-rule:nonzero;"/><path d="M11.065,23.893c0.3,0.023 0.601,0.034 0.902,0.034c6.569,0 11.973,-5.405 11.973,-11.973c0,-1.828 -0.418,-3.632 -1.223,-5.272l-10.797,-0c2.923,0.013 5.32,2.422 5.32,5.345c0,1.202 -0.405,2.37 -1.151,3.314" style="fill:url(#_Radial5);fill-rule:nonzero;"/><path d="M2.085,5.292l4.81,8.338c-0.356,-1.199 -0.28,-2.485 0.214,-3.634l-4.811,-5.025" style="fill-opacity:0.08;fill-rule:nonzero;"/><path d="M11.065,23.893l5.024,-8.552c-0.792,0.945 -1.888,1.587 -3.1,1.817l-2.138,6.735" style="fill-opacity:0.05;fill-rule:nonzero;"/><path d="M22.717,6.682l-10.797,-0c1.625,0.007 3.161,0.755 4.169,2.031l6.842,-1.711" style="fill-opacity:0.05;fill-rule:nonzero;"/><defs><radialGradient id="_Radial1" cx="0" cy="0" r="1" gradientUnits="userSpaceOnUse" gradientTransform="matrix(9.62138,0,0,9.62138,11.9733,7.17327)"><stop offset="0" style="stop-color:#7fb3df;stop-opacity:1"/><stop offset="0.1" style="stop-color:#7fb3df;stop-opacity:1"/><stop offset="0.9" style="stop-color:#0f5b94;stop-opacity:1"/><stop offset="1" style="stop-color:#0f5b94;stop-opacity:1"/></radialGradient><radialGradient id="_Radial2" cx="0" cy="0" r="1" gradientUnits="userSpaceOnUse" gradientTransform="matrix(9.62138,0,0,9.62138,11.9733,7.17327)"><stop offset="0" style="stop-color:#f6f0ee;stop-opacity:1"/><stop offset="1" style="stop-color:#ddd;stop-opacity:1"/></radialGradient><radialGradient id="_Radial3" cx="0" cy="0" r="1" gradientUnits="userSpaceOnUse" gradientTransform="matrix(20.6325,0,0,20.6325,12.4009,0.0372002)"><stop offset="0" style="stop-color:#f06b59;stop-opacity:1"/><stop offset="1" style="stop-color:#df2227;stop-opacity:1"/></radialGradient><radialGradient id="_Radial4" cx="0" cy="0" r="1" gradientUnits="userSpaceOnUse" gradientTransform="matrix(14.137,0,0,14.137,10.4778,10.8722)"><stop offset="0" style="stop-color:#4cb749;stop-opacity:1"/><stop offset="0.65" style="stop-color:#4cb749;stop-opacity:1"/><stop offset="1" style="stop-color:#388b41;stop-opacity:1"/></radialGradient><radialGradient id="_Radial5" cx="0" cy="0" r="1" gradientUnits="userSpaceOnUse" gradientTransform="matrix(13.7965,0,0,13.7965,15.6999,10.9929)"><stop offset="0" style="stop-color:#fcd209;stop-opacity:1"/><stop offset="0.6" style="stop-color:#fcd209;stop-opacity:1"/><stop offset="0.7" style="stop-color:#f7c616;stop-opacity:1"/><stop offset="1" style="stop-color:#bc821e;stop-opacity:1"/></radialGradient></defs></svg>