<?xml version="1.0" encoding="UTF-8" standalone="no"?><!DOCTYPE svg PUBLIC "-//W3C//DTD SVG 1.1//EN" "http://www.w3.org/Graphics/SVG/1.1/DTD/svg11.dtd"><svg width="100%" height="100%" viewBox="0 0 24 24" version="1.1" xmlns="http://www.w3.org/2000/svg" xmlns:xlink="http://www.w3.org/1999/xlink" xml:space="preserve" xmlns:serif="http://www.serif.com/" style="fill-rule:evenodd;clip-rule:evenodd;"><circle cx="12" cy="12" r="12" style="fill:#d53;"/><circle cx="12" cy="12" r="10.667" style="fill:none;stroke:#fff;stroke-width:0.78px;"/><path d="M8.444,5.889c-3.333,0.778 -2.111,5.444 -2.111,5.444l2.111,10.334l0.778,0.333m-1.555,-18.111l-0.889,-0l1.222,0.444c-0,0 -1.222,0 -1.222,0.778c2.666,-0.111 3.889,0.556 3.889,0.556" style="fill:#ddd;fill-rule:nonzero;"/><path d="M14.778,22.556c-0,-0 -2.667,-4.223 -2.667,-7c0,-5.223 3.445,-0.778 3.445,-4.889c-0,-4.111 -3.445,-5.111 -3.445,-5.111c-1.667,-2.112 -4.889,-1.667 -4.889,-1.667l0.778,0.444c0,0 -0.778,0.223 -1,0.445c-0.222,0.222 2.111,-0.334 3.111,0.555c-4.111,0.334 -3.444,3.667 -3.444,3.667l2.333,13.333" style="fill:#fff;fill-rule:nonzero;"/><path d="M14.778,11.889l4.222,-1.111c3.778,0.555 -3.222,2.666 -3.667,2.555c-3.333,-0.555 -2.333,2.223 1.667,1.334c4,-0.889 1,2.222 -2.667,1c-5.222,-1.445 -2.444,-4 0.445,-3.778" style="fill:#fc0;fill-rule:nonzero;"/><path d="M13.667,20.667l0.222,-0.334c2.444,0.889 2.555,1.223 2.444,-1c-0.111,-2.222 0,-2.222 -2.555,-0.333c-0,-0.556 -1.445,-0.333 -1.667,-0c-2.333,-1 -2.555,-1.333 -2.444,0.222c0.222,3.222 0.111,2.667 2.333,1.556" style="fill:#6b5;fill-rule:nonzero;"/><path d="M11.889,19.444l-0,1.334c0.111,0.222 1.889,0.222 1.889,-0.222c-0,-0.445 -0.889,0.333 -1.445,0.111c-0.555,-0.223 -0.222,-1.445 -0.222,-1.445" style="fill:#4a4;fill-rule:nonzero;"/><path d="M9.444,8.444c-0.555,-0.666 -2,-0.111 -1.666,0.778c0.111,-0.444 0.889,-1.111 1.666,-0.778m3.556,0c0.111,-0.666 1.222,-0.777 1.556,-0.111c-0.445,-0.222 -1.112,-0.222 -1.556,0.111m-3.667,1.778c0.026,-0.098 0.114,-0.166 0.215,-0.166c0.122,-0 0.223,0.1 0.223,0.222c-0,0.122 -0.101,0.222 -0.223,0.222c-0.101,0 -0.189,-0.069 -0.215,-0.167m-0.889,0.334c0.029,0.404 0.37,0.722 0.776,0.722c0.427,-0 0.778,-0.351 0.778,-0.778c0,-0.427 -0.351,-0.778 -0.778,-0.778c-0.406,0 -0.747,0.318 -0.776,0.723m5.778,-0.667c0.025,-0.098 0.114,-0.167 0.215,-0.167c0.122,0 0.223,0.101 0.223,0.222c-0,0.122 -0.101,0.223 -0.223,0.223c-0.101,-0 -0.19,-0.069 -0.215,-0.167m-0.666,0.333c0.028,0.344 0.319,0.611 0.664,0.611c0.366,0 0.667,-0.3 0.667,-0.666c-0,-0.366 -0.301,-0.667 -0.667,-0.667c-0.345,0 -0.636,0.268 -0.664,0.611" style="fill:#148;fill-rule:nonzero;"/></svg>