<?xml version="1.0" encoding="UTF-8" standalone="no"?><!DOCTYPE svg PUBLIC "-//W3C//DTD SVG 1.1//EN" "http://www.w3.org/Graphics/SVG/1.1/DTD/svg11.dtd"><svg width="100%" height="100%" viewBox="0 0 24 24" version="1.1" xmlns="http://www.w3.org/2000/svg" xmlns:xlink="http://www.w3.org/1999/xlink" xml:space="preserve" xmlns:serif="http://www.serif.com/" style="fill-rule:evenodd;clip-rule:evenodd;stroke-linejoin:round;stroke-miterlimit:2;"><path id="path2" d="M11.998,0c-6.625,0 -11.998,5.364 -11.998,12.002c0,6.639 5.364,11.998 11.998,11.998c6.633,-0 12.002,-5.359 12.002,-11.998c-0,-6.638 -5.364,-12.002 -12.002,-12.002Zm-0,22.611c-5.854,-0 -10.576,-4.755 -10.576,-10.609c-0,-5.853 4.722,-10.608 10.576,-10.608c5.853,0 10.576,4.755 10.576,10.608c-0,5.854 -4.718,10.609 -10.576,10.609Z" style="fill:#dc7f58;fill-rule:nonzero;"/><path id="path3" d="M12.127,3.301c-4.884,-0 -8.799,3.979 -8.799,8.798c0,4.884 3.915,8.799 8.799,8.799c4.856,-0 8.766,-3.947 8.766,-8.799c0,-4.851 -3.914,-8.798 -8.766,-8.798Z" style="fill:#38acb8;fill-rule:nonzero;"/><path id="path4" d="M20.704,13.844c-0,0.065 -0,0.129 0.032,0.194c0.033,-0.097 0.033,-0.194 0.065,-0.323c-0.069,0.032 -0.069,0.097 -0.097,0.129Zm-6.052,1.621c-0.291,0.193 -0.485,0.387 -0.549,0.872c0.064,0.097 0.097,0.162 0.226,0.226c0.355,-0.129 0.743,-0.711 0.485,-1.071c-0.065,-0.032 -0.097,-0.032 -0.162,-0.032l0,0.005Zm-4.205,-11.163c-0.162,-0.064 -0.356,-0.097 -0.517,-0.161c-0.42,0.097 -0.938,-0 -1.422,-0.097c-0.356,0.161 -0.711,0.355 -1.034,0.549c0.069,0.074 0.124,0.157 0.161,0.254c-0.064,0.226 -0.291,0.452 -0.194,0.711c0.033,0.162 0.097,0.226 0.227,0.323c0.42,0.032 0.646,-0.226 0.969,-0.323l1.011,-0.162c0.388,-0.097 1.066,-0.646 0.808,-1.098l-0.009,0.004Zm-5.143,8.088l-0.485,-0.711c-0.42,-0.42 -0.84,-0.775 -1.389,-0.905c-0.065,0.42 -0.097,0.873 -0.097,1.325c-0,1.487 0.355,2.913 1.034,4.141c0.097,-0.097 0.194,-0.162 0.291,-0.254l0.42,-0.678c0.226,-0.227 0.582,-0.291 0.775,-0.55l0.227,-0.614c0.129,-0.254 0.452,-0.452 0.387,-0.808c-0.161,-0.517 -0.807,-0.581 -1.163,-0.937l0,-0.009Zm0.194,-5.433c0.291,-0.13 0.452,0.226 0.679,-0.033c0.29,-0.29 -0.097,-0.775 -0.097,-1.098c-0,-0.065 0.032,-0.162 0.064,-0.226c-0.581,0.517 -1.066,1.131 -1.491,1.777c0.129,-0.033 0.254,-0.033 0.356,-0.065c0.198,-0.097 0.327,-0.226 0.489,-0.355Zm12.972,-0.97c-0.194,0 -0.388,0 -0.582,0.033l-2.751,0.29c-0.873,0 -1.325,-0.71 -2.165,-0.517c-0.323,0.065 -0.937,0.421 -1.099,0.679c-0.226,0.355 0.065,0.582 -0.355,0.776c-0.291,-0.065 -0.388,-0.291 -0.647,-0.421c-0.184,0.014 -0.351,0.107 -0.452,0.259c-0.032,0.388 0.254,0.452 0.254,0.84c-0.162,0.226 -0.55,0.254 -0.646,0.517c-0.13,0.291 -0,0.614 -0.194,0.84l-0.841,0.808c-0.549,0.679 -0.29,1.777 0.13,2.198c0.388,0.387 0.969,0.064 1.491,0.29c0.388,0.162 0.452,0.905 0.549,1.261c0.194,0.581 -0.161,0.84 -0.161,1.389c-0,0.549 0.193,2.133 0.969,2.1c0.872,-0.032 1.071,-0.904 1.551,-1.486c0.162,-0.194 0.42,-0.291 0.549,-0.582l0.033,-0.904c0.194,-0.517 0.808,-0.679 1.131,-1.067c0.323,-0.355 0.032,-0.646 0.194,-0.937c-0,0 0.032,0 0.032,-0.032l0.808,-0.453l0.388,-0.452l0.29,-0.097c1.011,0.517 0.647,1.551 1.358,2.101c0.064,-0.033 0.096,-0.065 0.161,-0.097c0.097,-0.13 0.032,-0.254 0.097,-0.453c0.129,-0.388 0.582,-0.775 1.066,-0.678c0.227,0.29 0.614,0.678 0.679,1.098c0.065,0.388 -0.194,0.614 -0.194,0.937c0,0.227 0.129,0.517 0.323,0.808c0.129,-0.332 0.231,-0.683 0.291,-1.034c0,-0.064 0,-0.129 -0.032,-0.194c0.032,-0.032 0.032,-0.064 0.064,-0.129c0.102,-0.531 0.157,-1.076 0.162,-1.616c-0,-2.336 -0.937,-4.496 -2.461,-6.079l0.01,0.004Zm-4.82,4.035c-0.194,0.032 -0.387,-0.097 -0.517,-0.162c-0.226,-0.032 -0.484,-0.032 -0.711,-0.064c-0.032,-0 -1.163,-0.905 -1.195,-0.97c0.064,-0.161 0.129,-0.161 0.226,-0.226c0.42,0.097 0.517,0.356 0.808,0.485l0.452,0.097c0.162,0.129 0.323,0.226 0.485,0.355c0.194,0.097 0.452,0.097 0.614,0.129c-0,0.033 0.032,0.065 0.032,0.097l0,0.162c-0.097,0.032 -0.129,0.065 -0.194,0.097Zm-1.26,-0.226l-1.196,-0.97c0.06,0.065 1.164,0.97 1.196,0.97Z" style="fill:#d4db32;fill-rule:nonzero;"/></svg>