<?xml version="1.0" encoding="UTF-8" standalone="no"?><!DOCTYPE svg PUBLIC "-//W3C//DTD SVG 1.1//EN" "http://www.w3.org/Graphics/SVG/1.1/DTD/svg11.dtd"><svg width="100%" height="100%" viewBox="0 0 24 24" version="1.1" xmlns="http://www.w3.org/2000/svg" xmlns:xlink="http://www.w3.org/1999/xlink" xml:space="preserve" xmlns:serif="http://www.serif.com/" style="fill-rule:evenodd;clip-rule:evenodd;stroke-linejoin:round;stroke-miterlimit:2;"><path d="M22.776,8.049c-0.505,-1.215 -1.529,-2.528 -2.332,-2.943c0.654,1.283 1.032,2.569 1.177,3.53c0,0.001 0.001,0.006 0.002,0.019c-1.315,-3.278 -3.544,-4.599 -5.365,-7.477c-0.092,-0.145 -0.184,-0.291 -0.274,-0.445c-0.045,-0.078 -0.088,-0.159 -0.128,-0.24c-0.075,-0.146 -0.134,-0.301 -0.174,-0.46c0.001,-0.016 -0.011,-0.029 -0.026,-0.031c-0.007,-0.003 -0.015,-0.003 -0.022,-0c-0.002,0 -0.004,0.002 -0.006,0.003c-0.002,0.001 -0.005,0.003 -0.008,0.005c0.001,-0.002 0.004,-0.006 0.005,-0.007c-2.921,1.711 -3.912,4.875 -4.004,6.459c-1.166,0.08 -2.281,0.51 -3.2,1.233c-0.096,-0.081 -0.197,-0.157 -0.301,-0.227c-0.265,-0.927 -0.276,-1.909 -0.033,-2.842c-1.194,0.544 -2.123,1.404 -2.799,2.163l-0.005,-0c-0.461,-0.584 -0.429,-2.51 -0.403,-2.912c-0.005,-0.025 -0.343,0.175 -0.388,0.206c-0.407,0.29 -0.787,0.616 -1.136,0.973c-0.398,0.403 -0.761,0.839 -1.086,1.302c-0,0.001 -0,0.002 -0.001,0.002c0,-0 0.001,-0.001 0.001,-0.002c-0.748,1.06 -1.278,2.257 -1.56,3.523c-0.006,0.025 -0.011,0.051 -0.016,0.077c-0.022,0.102 -0.101,0.614 -0.115,0.726c-0.001,0.008 -0.001,0.016 -0.002,0.025c-0.102,0.53 -0.165,1.066 -0.189,1.604c0,0.02 -0.001,0.04 -0.001,0.06c0,6.421 5.207,11.627 11.629,11.627c5.751,-0 10.527,-4.175 11.462,-9.66c0.02,-0.148 0.035,-0.298 0.053,-0.448c0.231,-1.994 -0.026,-4.09 -0.755,-5.843Zm-13.403,9.102c0.055,0.026 0.106,0.054 0.162,0.079c0.002,0.002 0.005,0.003 0.008,0.005c-0.057,-0.027 -0.114,-0.055 -0.17,-0.084Zm12.251,-8.493l-0.001,-0.012c0,0.005 0.001,0.009 0.002,0.013l-0.001,-0.001Z" style="fill:url(#_Linear1);fill-rule:nonzero;"/><path d="M22.776,8.049c-0.505,-1.215 -1.529,-2.528 -2.332,-2.943c0.654,1.283 1.032,2.569 1.177,3.53c0,-0.003 0.001,0.002 0.002,0.01c0,0.005 0.001,0.009 0.002,0.013c1.097,2.974 0.499,5.999 -0.362,7.847c-1.333,2.86 -4.559,5.791 -9.609,5.648c-5.456,-0.155 -10.262,-4.203 -11.159,-9.505c-0.164,-0.836 -0,-1.261 0.082,-1.94c-0.1,0.524 -0.138,0.675 -0.189,1.605c0,0.02 -0.001,0.039 -0.001,0.059c0,6.421 5.207,11.627 11.629,11.627c5.751,0 10.527,-4.175 11.462,-9.66c0.02,-0.148 0.035,-0.298 0.053,-0.448c0.231,-1.994 -0.026,-4.09 -0.755,-5.843Z" style="fill:url(#_Radial2);fill-rule:nonzero;"/><path d="M22.776,8.049c-0.505,-1.215 -1.529,-2.528 -2.332,-2.943c0.654,1.283 1.032,2.569 1.177,3.53c0,-0.003 0.001,0.002 0.002,0.01c0,0.005 0.001,0.009 0.002,0.013c1.097,2.974 0.499,5.999 -0.362,7.847c-1.333,2.86 -4.559,5.791 -9.609,5.648c-5.456,-0.155 -10.262,-4.203 -11.159,-9.505c-0.164,-0.836 -0,-1.261 0.082,-1.94c-0.1,0.524 -0.138,0.675 -0.189,1.605c0,0.02 -0.001,0.039 -0.001,0.059c0,6.421 5.207,11.627 11.629,11.627c5.751,0 10.527,-4.175 11.462,-9.66c0.02,-0.148 0.035,-0.298 0.053,-0.448c0.231,-1.994 -0.026,-4.09 -0.755,-5.843Z" style="fill:url(#_Radial3);fill-rule:nonzero;"/><path d="M17.125,9.416c0.026,0.018 0.049,0.036 0.073,0.053c-0.292,-0.518 -0.656,-0.992 -1.08,-1.408c-3.615,-3.615 -0.948,-7.837 -0.498,-8.052c0.001,-0.001 0.004,-0.005 0.005,-0.006c-2.921,1.711 -3.912,4.875 -4.003,6.459c0.135,-0.01 0.27,-0.021 0.408,-0.021c2.18,-0 4.079,1.198 5.095,2.975Z" style="fill:url(#_Radial4);fill-rule:nonzero;"/><path d="M12.037,10.138c-0.019,0.289 -1.041,1.286 -1.398,1.286c-3.307,0 -3.843,2.001 -3.843,2.001c0.146,1.684 1.319,3.071 2.739,3.805c0.065,0.033 0.13,0.064 0.196,0.094c0.112,0.049 0.226,0.096 0.341,0.139c0.487,0.173 0.997,0.271 1.513,0.292c5.796,0.272 6.919,-6.929 2.737,-9.02c1.071,-0.186 2.183,0.245 2.803,0.681c-1.016,-1.777 -2.915,-2.975 -5.095,-2.975c-0.138,-0 -0.273,0.011 -0.408,0.021c-1.167,0.08 -2.282,0.51 -3.201,1.233c0.178,0.15 0.378,0.35 0.799,0.766c0.789,0.777 2.813,1.582 2.817,1.677Z" style="fill:url(#_Radial5);fill-rule:nonzero;"/><path d="M12.037,10.138c-0.019,0.289 -1.041,1.286 -1.398,1.286c-3.307,0 -3.843,2.001 -3.843,2.001c0.146,1.684 1.319,3.071 2.739,3.805c0.065,0.033 0.13,0.064 0.196,0.094c0.112,0.049 0.226,0.096 0.341,0.139c0.487,0.173 0.997,0.271 1.513,0.292c5.796,0.272 6.919,-6.929 2.737,-9.02c1.071,-0.186 2.183,0.245 2.803,0.681c-1.016,-1.777 -2.915,-2.975 -5.095,-2.975c-0.138,-0 -0.273,0.011 -0.408,0.021c-1.167,0.08 -2.282,0.51 -3.201,1.233c0.178,0.15 0.378,0.35 0.799,0.766c0.789,0.777 2.813,1.582 2.817,1.677Z" style="fill:url(#_Radial6);fill-rule:nonzero;"/><path d="M7.879,7.308c0.081,0.052 0.161,0.106 0.241,0.16c-0.265,-0.927 -0.276,-1.909 -0.033,-2.842c-1.194,0.544 -2.123,1.404 -2.799,2.163c0.056,-0.002 1.743,-0.032 2.591,0.519Z" style="fill:url(#_Radial7);fill-rule:nonzero;"/><path d="M0.495,12.649c0.897,5.302 5.703,9.35 11.159,9.505c5.05,0.143 8.276,-2.788 9.609,-5.648c0.861,-1.848 1.459,-4.872 0.362,-7.847l-0.001,-0.001l-0.001,-0.012c-0.001,-0.008 -0.002,-0.013 -0.002,-0.01c0,0.001 0.001,0.006 0.002,0.019c0.413,2.693 -0.957,5.302 -3.099,7.067l-0.006,0.015c-4.173,3.398 -8.167,2.05 -8.975,1.498c-0.057,-0.027 -0.114,-0.055 -0.17,-0.084c-2.433,-1.163 -3.438,-3.38 -3.222,-5.281c-2.055,0 -2.755,-1.732 -2.755,-1.732c-0,-0 1.844,-1.315 4.275,-0.172c2.252,1.06 4.366,0.172 4.366,0.172c-0.004,-0.095 -2.028,-0.9 -2.817,-1.677c-0.421,-0.415 -0.622,-0.616 -0.799,-0.766c-0.096,-0.081 -0.197,-0.157 -0.301,-0.227c-0.08,-0.054 -0.16,-0.108 -0.241,-0.16c-0.848,-0.551 -2.535,-0.521 -2.591,-0.52l-0.005,0c-0.461,-0.583 -0.429,-2.51 -0.403,-2.912c-0.005,-0.025 -0.343,0.176 -0.388,0.206c-0.407,0.291 -0.787,0.616 -1.136,0.974c-0.398,0.403 -0.761,0.839 -1.086,1.302c-0,0.001 -0,0.002 -0.001,0.002c0,-0 0.001,-0.001 0.001,-0.002c-0.748,1.06 -1.278,2.257 -1.56,3.523c-0.006,0.025 -0.419,1.831 -0.215,2.768Z" style="fill:url(#_Radial8);fill-rule:nonzero;"/><path d="M16.118,8.061c0.424,0.416 0.788,0.89 1.08,1.408c0.064,0.048 0.123,0.096 0.174,0.143c2.636,2.429 1.255,5.865 1.152,6.109c2.142,-1.764 3.512,-4.373 3.099,-7.066c-1.315,-3.278 -3.544,-4.599 -5.365,-7.477c-0.092,-0.145 -0.184,-0.291 -0.274,-0.445c-0.045,-0.078 -0.088,-0.159 -0.128,-0.24c-0.075,-0.146 -0.134,-0.301 -0.174,-0.46c0.001,-0.016 -0.011,-0.029 -0.026,-0.031c-0.007,-0.003 -0.015,-0.003 -0.022,-0c-0.002,0 -0.004,0.002 -0.006,0.003c-0.002,0.001 -0.005,0.003 -0.008,0.005c-0.45,0.214 -3.117,4.436 0.498,8.051Z" style="fill:url(#_Radial9);fill-rule:nonzero;"/><path d="M17.372,9.612c-0.051,-0.047 -0.11,-0.095 -0.174,-0.143c-0.024,-0.018 -0.047,-0.035 -0.073,-0.053c-0.621,-0.436 -1.732,-0.867 -2.804,-0.681c4.183,2.091 3.06,9.292 -2.736,9.02c-0.516,-0.021 -1.026,-0.119 -1.513,-0.292c-0.115,-0.043 -0.229,-0.09 -0.341,-0.139c-0.066,-0.03 -0.131,-0.06 -0.196,-0.094c0.002,0.002 0.005,0.003 0.008,0.005c0.808,0.551 4.802,1.899 8.975,-1.498l0.006,-0.016c0.103,-0.244 1.484,-3.68 -1.152,-6.109Z" style="fill:url(#_Radial10);fill-rule:nonzero;"/><path d="M6.796,13.425c-0,-0 0.536,-2 3.843,-2c0.358,-0 1.379,-0.998 1.398,-1.287c0.019,-0.289 -2.114,0.888 -4.366,-0.172c-2.431,-1.143 -4.275,0.172 -4.275,0.172c-0,-0 0.7,1.732 2.755,1.732c-0.216,1.901 0.789,4.118 3.222,5.281c0.055,0.026 0.106,0.054 0.162,0.079c-1.42,-0.734 -2.593,-2.121 -2.739,-3.805Z" style="fill:url(#_Radial11);fill-rule:nonzero;"/><path d="M22.776,8.049c-0.505,-1.215 -1.529,-2.528 -2.332,-2.943c0.654,1.283 1.032,2.569 1.177,3.53c0,0.001 0.001,0.006 0.002,0.019c-1.315,-3.278 -3.544,-4.599 -5.365,-7.477c-0.092,-0.145 -0.184,-0.291 -0.274,-0.445c-0.045,-0.078 -0.088,-0.159 -0.128,-0.24c-0.075,-0.146 -0.134,-0.301 -0.174,-0.46c0.001,-0.016 -0.011,-0.029 -0.026,-0.031c-0.007,-0.003 -0.015,-0.003 -0.022,-0c-0.002,0 -0.004,0.002 -0.006,0.003c-0.002,0.001 -0.005,0.003 -0.008,0.005c0.001,-0.002 0.004,-0.006 0.005,-0.007c-2.921,1.711 -3.912,4.875 -4.004,6.459c0.136,-0.01 0.271,-0.021 0.409,-0.021c2.18,0 4.079,1.199 5.095,2.975c-0.621,-0.436 -1.733,-0.867 -2.804,-0.681c4.183,2.091 3.06,9.292 -2.736,9.02c-0.516,-0.021 -1.026,-0.119 -1.513,-0.292c-0.115,-0.043 -0.229,-0.089 -0.341,-0.139c-0.066,-0.03 -0.132,-0.06 -0.196,-0.094c0.002,0.002 0.005,0.004 0.007,0.005c-0.056,-0.027 -0.113,-0.055 -0.169,-0.084c0.054,0.026 0.106,0.054 0.161,0.079c-1.42,-0.734 -2.592,-2.121 -2.739,-3.805c0,-0 0.537,-2 3.844,-2c0.357,-0 1.379,-0.998 1.398,-1.287c-0.004,-0.095 -2.028,-0.9 -2.817,-1.677c-0.422,-0.415 -0.622,-0.616 -0.799,-0.766c-0.096,-0.081 -0.197,-0.157 -0.302,-0.227c-0.265,-0.928 -0.276,-1.909 -0.032,-2.842c-1.195,0.544 -2.124,1.403 -2.799,2.163l-0.006,-0c-0.461,-0.584 -0.428,-2.51 -0.402,-2.913c-0.005,-0.024 -0.344,0.176 -0.388,0.206c-0.407,0.291 -0.787,0.617 -1.137,0.974c-0.397,0.403 -0.76,0.839 -1.085,1.302c-0,0.001 -0,0.002 -0.001,0.002c0,-0 0.001,-0.001 0.001,-0.002c-0.748,1.06 -1.278,2.257 -1.56,3.523c-0.006,0.025 -0.011,0.051 -0.016,0.077c-0.022,0.102 -0.12,0.622 -0.134,0.733c-0.001,0.009 0.001,-0.008 -0,0c-0.09,0.537 -0.147,1.079 -0.172,1.623c0,0.02 -0.001,0.039 -0.001,0.059c0,6.421 5.207,11.627 11.629,11.627c5.751,0 10.527,-4.175 11.462,-9.66c0.02,-0.148 0.035,-0.298 0.053,-0.448c0.231,-1.994 -0.026,-4.09 -0.755,-5.843Zm-1.153,0.597c0,0.005 0.001,0.009 0.002,0.013l-0.001,-0.001l-0.001,-0.012Z" style="fill:url(#_Linear12);fill-rule:nonzero;"/><defs><linearGradient id="_Linear1" x1="0" y1="0" x2="1" y2="0" gradientUnits="userSpaceOnUse" gradientTransform="matrix(-18.0815,18.624,-18.624,-18.0815,20.6517,3.72)"><stop offset="0" style="stop-color:#fff44f;stop-opacity:1"/><stop offset="0.05" style="stop-color:#fff44f;stop-opacity:1"/><stop offset="0.37" style="stop-color:#ff980e;stop-opacity:1"/><stop offset="0.53" style="stop-color:#ff3647;stop-opacity:1"/><stop offset="0.7" style="stop-color:#e31587;stop-opacity:1"/><stop offset="1" style="stop-color:#e31587;stop-opacity:1"/></linearGradient><radialGradient id="_Radial2" cx="0" cy="0" r="1" gradientUnits="userSpaceOnUse" gradientTransform="matrix(23.7834,0,0,29.7292,20.7609,5.10634)"><stop offset="0" style="stop-color:#ffbd4f;stop-opacity:1"/><stop offset="0.13" style="stop-color:#ffbd4f;stop-opacity:1"/><stop offset="0.28" style="stop-color:#ff980e;stop-opacity:1"/><stop offset="0.47" style="stop-color:#ff3750;stop-opacity:1"/><stop offset="0.78" style="stop-color:#eb0878;stop-opacity:1"/><stop offset="0.86" style="stop-color:#e50080;stop-opacity:1"/><stop offset="1" style="stop-color:#e50080;stop-opacity:1"/></radialGradient><radialGradient id="_Radial3" cx="0" cy="0" r="1" gradientUnits="userSpaceOnUse" gradientTransform="matrix(24.378,0,0,29.7292,11.7631,12.6638)"><stop offset="0" style="stop-color:#960e18;stop-opacity:1"/><stop offset="0.3" style="stop-color:#960e18;stop-opacity:1"/><stop offset="0.35" style="stop-color:#b11927;stop-opacity:0.74"/><stop offset="0.43" style="stop-color:#db293d;stop-opacity:0.34"/><stop offset="0.5" style="stop-color:#f5334b;stop-opacity:0.09"/><stop offset="0.53" style="stop-color:#ff3750;stop-opacity:0"/><stop offset="1" style="stop-color:#ff3750;stop-opacity:0"/></radialGradient><radialGradient id="_Radial4" cx="0" cy="0" r="1" gradientUnits="userSpaceOnUse" gradientTransform="matrix(13.2532,0,0,13.2532,14.2981,-1.13325)"><stop offset="0" style="stop-color:#fff44f;stop-opacity:1"/><stop offset="0.13" style="stop-color:#fff44f;stop-opacity:1"/><stop offset="0.53" style="stop-color:#ff980e;stop-opacity:1"/><stop offset="1" style="stop-color:#ff980e;stop-opacity:1"/></radialGradient><radialGradient id="_Radial5" cx="0" cy="0" r="1" gradientUnits="userSpaceOnUse" gradientTransform="matrix(11.3216,0,0,11.3216,9.14665,18.9071)"><stop offset="0" style="stop-color:#3a8ee6;stop-opacity:1"/><stop offset="0.35" style="stop-color:#3a8ee6;stop-opacity:1"/><stop offset="0.67" style="stop-color:#9059ff;stop-opacity:1"/><stop offset="1" style="stop-color:#c139e6;stop-opacity:1"/></radialGradient><radialGradient id="_Radial6" cx="0" cy="0" r="1" gradientUnits="userSpaceOnUse" gradientTransform="matrix(6.01179,0,0,6.67977,11.6299,10.177)"><stop offset="0" style="stop-color:#9059ff;stop-opacity:0"/><stop offset="0.21" style="stop-color:#9059ff;stop-opacity:0"/><stop offset="0.97" style="stop-color:#6e008b;stop-opacity:0.6"/><stop offset="1" style="stop-color:#6e008b;stop-opacity:0.6"/></radialGradient><radialGradient id="_Radial7" cx="0" cy="0" r="1" gradientUnits="userSpaceOnUse" gradientTransform="matrix(8.24145,0,0,8.24145,11.2349,1.78407)"><stop offset="0" style="stop-color:#ffe226;stop-opacity:1"/><stop offset="0.1" style="stop-color:#ffe226;stop-opacity:1"/><stop offset="0.79" style="stop-color:#ff7139;stop-opacity:1"/><stop offset="1" style="stop-color:#ff7139;stop-opacity:1"/></radialGradient><radialGradient id="_Radial8" cx="0" cy="0" r="1" gradientUnits="userSpaceOnUse" gradientTransform="matrix(39.2071,0,0,39.2071,18.735,-3.62248)"><stop offset="0" style="stop-color:#fff44f;stop-opacity:1"/><stop offset="0.11" style="stop-color:#fff44f;stop-opacity:1"/><stop offset="0.46" style="stop-color:#ff980e;stop-opacity:1"/><stop offset="0.72" style="stop-color:#ff3647;stop-opacity:1"/><stop offset="0.9" style="stop-color:#e31587;stop-opacity:1"/><stop offset="1" style="stop-color:#e31587;stop-opacity:1"/></radialGradient><radialGradient id="_Radial9" cx="0" cy="0" r="1" gradientUnits="userSpaceOnUse" gradientTransform="matrix(5.73198,54.1219,-25.8282,2.69403,15.4145,-2.97596)"><stop offset="0" style="stop-color:#fff44f;stop-opacity:1"/><stop offset="0.3" style="stop-color:#ff980e;stop-opacity:1"/><stop offset="0.57" style="stop-color:#ff3647;stop-opacity:1"/><stop offset="0.74" style="stop-color:#e31587;stop-opacity:1"/><stop offset="1" style="stop-color:#e31587;stop-opacity:1"/></radialGradient><radialGradient id="_Radial10" cx="0" cy="0" r="1" gradientUnits="userSpaceOnUse" gradientTransform="matrix(22.5106,0,0,22.5106,11.3194,4.74831)"><stop offset="0" style="stop-color:#fff44f;stop-opacity:1"/><stop offset="0.14" style="stop-color:#fff44f;stop-opacity:1"/><stop offset="0.48" style="stop-color:#ff980e;stop-opacity:1"/><stop offset="0.66" style="stop-color:#ff3647;stop-opacity:1"/><stop offset="0.9" style="stop-color:#e31587;stop-opacity:1"/><stop offset="1" style="stop-color:#e31587;stop-opacity:1"/></radialGradient><radialGradient id="_Radial11" cx="0" cy="0" r="1" gradientUnits="userSpaceOnUse" gradientTransform="matrix(27.057,0,0,27.057,17.162,6.04172)"><stop offset="0" style="stop-color:#fff44f;stop-opacity:1"/><stop offset="0.09" style="stop-color:#fff44f;stop-opacity:1"/><stop offset="0.63" style="stop-color:#ff980e;stop-opacity:1"/><stop offset="1" style="stop-color:#ff980e;stop-opacity:1"/></radialGradient><linearGradient id="_Linear12" x1="0" y1="0" x2="1" y2="0" gradientUnits="userSpaceOnUse" gradientTransform="matrix(-14.4,16.8,-16.8,-14.4,18.9679,3.36)"><stop offset="0" style="stop-color:#fff44f;stop-opacity:0.8"/><stop offset="0.17" style="stop-color:#fff44f;stop-opacity:0.8"/><stop offset="0.6" style="stop-color:#fff44f;stop-opacity:0"/><stop offset="1" style="stop-color:#fff44f;stop-opacity:0"/></linearGradient></defs></svg>