<?xml version="1.0" encoding="UTF-8" standalone="no"?><!DOCTYPE svg PUBLIC "-//W3C//DTD SVG 1.1//EN" "http://www.w3.org/Graphics/SVG/1.1/DTD/svg11.dtd"><svg width="100%" height="100%" viewBox="0 0 24 24" version="1.1" xmlns="http://www.w3.org/2000/svg" xmlns:xlink="http://www.w3.org/1999/xlink" xml:space="preserve" xmlns:serif="http://www.serif.com/" style="fill-rule:evenodd;clip-rule:evenodd;stroke-linejoin:round;stroke-miterlimit:2;"><path d="M23.767,9.65l-0.967,-0l0,-0.05l-10.8,0l-0,4.8l6.782,0c-0.99,2.794 -3.648,4.8 -6.782,4.8c-3.976,0 -7.2,-3.224 -7.2,-7.2c-0,-3.976 3.224,-7.2 7.2,-7.2c1.835,-0 3.505,0.692 4.777,1.823l3.394,-3.394c-2.143,-1.997 -5.01,-3.229 -8.171,-3.229c-6.627,0 -12,5.373 -12,12c0,6.627 5.373,12 12,12c6.627,0 12,-5.373 12,-12c0,-0.805 -0.083,-1.59 -0.233,-2.35Z" style="fill:#ffc107;fill-rule:nonzero;"/><path d="M1.384,6.415l3.942,2.891c1.067,-2.641 3.651,-4.506 6.674,-4.506c1.835,-0 3.505,0.692 4.777,1.823l3.394,-3.394c-2.143,-1.997 -5.01,-3.229 -8.171,-3.229c-4.609,-0 -8.606,2.602 -10.616,6.415Z" style="fill:#ff3d00;fill-rule:nonzero;"/><path d="M12,24c3.1,0 5.916,-1.186 8.045,-3.115l-3.714,-3.143c-1.204,0.913 -2.702,1.458 -4.331,1.458c-3.121,0 -5.771,-1.99 -6.77,-4.768l-3.913,3.015c1.986,3.887 6.019,6.553 10.683,6.553Z" style="fill:#4caf50;fill-rule:nonzero;"/><path d="M23.767,9.65l-0.967,-0l0,-0.05l-10.8,0l-0,4.8l6.782,0c-0.475,1.342 -1.339,2.5 -2.452,3.343c0,-0.001 0.001,-0.001 0.001,-0.002l3.714,3.143c-0.262,0.239 3.955,-2.884 3.955,-8.884c0,-0.805 -0.083,-1.59 -0.233,-2.35Z" style="fill:#1976d2;fill-rule:nonzero;"/></svg>