<?xml version="1.0" encoding="UTF-8" standalone="no"?>
<svg
   width="32"
   height="32"
   fill="none"
   version="1.1"
   id="svg9"
   sodipodi:docname="hive.svg"
   inkscape:version="1.4 (86a8ad7, 2024-10-11)"
   xmlns:inkscape="http://www.inkscape.org/namespaces/inkscape"
   xmlns:sodipodi="http://sodipodi.sourceforge.net/DTD/sodipodi-0.dtd"
   xmlns="http://www.w3.org/2000/svg"
   xmlns:svg="http://www.w3.org/2000/svg">
  <sodipodi:namedview
     id="namedview9"
     pagecolor="#505050"
     bordercolor="#ffffff"
     borderopacity="1"
     inkscape:showpageshadow="0"
     inkscape:pageopacity="0"
     inkscape:pagecheckerboard="1"
     inkscape:deskcolor="#505050"
     showgrid="false"
     inkscape:zoom="23.285714"
     inkscape:cx="25.294479"
     inkscape:cy="12.067485"
     inkscape:window-width="2880"
     inkscape:window-height="1526"
     inkscape:window-x="2869"
     inkscape:window-y="-11"
     inkscape:window-maximized="1"
     inkscape:current-layer="svg9" />
  <circle
     style="fill:#ffffff;fill-opacity:1;stroke:none;stroke-width:0.667;stroke-linecap:round;stroke-linejoin:round"
     id="path9"
     cx="16"
     cy="16"
     r="16" />
  <path
     fill="url(#id-1ayeugjj6)"
     d="m 14.219,1.313 c 0.754,0 1.478,0.311 2.011,0.864 0.533,0.553 0.833,1.303 0.833,2.085 v 19.915 c 0,0.782 -0.3,1.532 -0.833,2.085 -0.533,0.553 -1.257,0.864 -2.011,0.864 -0.754,0 -1.478,-0.311 -2.011,-0.864 -0.533,-0.553 -0.833,-1.303 -0.833,-2.085 V 4.261 c 0,-0.782 0.3,-1.532 0.833,-2.085 0.533,-0.553 1.257,-0.864 2.011,-0.864 z"
     id="path1"
     style="fill:url(#id-1ayeugjj6)"
     transform="matrix(1.2008987,0,0,1.2008987,-1.0749782,-1.0755786)" />
  <path
     fill="url(#id-l7p4zffxf)"
     d="m 5.906,6.125 c 0.754,0 1.478,0.317 2.011,0.881 C 8.45,7.57 8.75,8.335 8.75,9.132 v 10.174 c 0,0.798 -0.3,1.562 -0.833,2.126 -0.533,0.564 -1.257,0.881 -2.011,0.881 -0.754,0 -1.478,-0.317 -2.011,-0.881 C 3.362,20.868 3.062,20.103 3.062,19.306 V 9.132 C 3.062,8.334 3.362,7.57 3.895,7.006 4.428,6.442 5.152,6.125 5.906,6.125"
     id="path2"
     style="fill:url(#id-l7p4zffxf)"
     transform="matrix(1.2008987,0,0,1.2008987,-1.0749782,-1.0755786)" />
  <path
     fill="url(#id-p85vlqe8q)"
     d="m 22.531,6.125 c 0.754,0 1.478,0.317 2.011,0.881 0.533,0.564 0.833,1.329 0.833,2.126 v 10.174 c 0,0.798 -0.3,1.562 -0.833,2.126 -0.533,0.564 -1.257,0.881 -2.011,0.881 -0.754,0 -1.477,-0.317 -2.011,-0.881 -0.534,-0.564 -0.833,-1.329 -0.833,-2.126 V 9.132 c 0,-0.798 0.3,-1.562 0.833,-2.126 0.533,-0.564 1.257,-0.881 2.011,-0.881"
     id="path3"
     style="fill:url(#id-p85vlqe8q)"
     transform="matrix(1.2008987,0,0,1.2008987,-1.0749782,-1.0755786)" />
  <defs
     id="defs9">
    <linearGradient
       id="id-1ayeugjj6"
       x1="14.219"
       x2="14.219"
       y1="1.313"
       y2="27.125"
       gradientUnits="userSpaceOnUse">
      <stop
         stop-color="#175cff"
         id="stop4" />
      <stop
         offset="1"
         stop-color="#3693f9"
         id="stop5" />
    </linearGradient>
    <linearGradient
       id="id-l7p4zffxf"
       x1="5.9060001"
       x2="5.9060001"
       y1="6.125"
       y2="22.313"
       gradientUnits="userSpaceOnUse">
      <stop
         stop-color="#175cff"
         id="stop6" />
      <stop
         offset="1"
         stop-color="#3693f9"
         id="stop7" />
    </linearGradient>
    <linearGradient
       id="id-p85vlqe8q"
       x1="22.531"
       x2="22.531"
       y1="6.125"
       y2="22.313"
       gradientUnits="userSpaceOnUse">
      <stop
         stop-color="#175cff"
         id="stop8" />
      <stop
         offset="1"
         stop-color="#3693f9"
         id="stop9" />
    </linearGradient>
  </defs>
</svg>
