<?xml version="1.0" encoding="UTF-8" standalone="no"?><!DOCTYPE svg PUBLIC "-//W3C//DTD SVG 1.1//EN" "http://www.w3.org/Graphics/SVG/1.1/DTD/svg11.dtd"><svg width="100%" height="100%" viewBox="0 0 69 69" version="1.1" xmlns="http://www.w3.org/2000/svg" xmlns:xlink="http://www.w3.org/1999/xlink" xml:space="preserve" xmlns:serif="http://www.serif.com/" style="fill-rule:evenodd;clip-rule:evenodd;stroke-linejoin:round;stroke-miterlimit:2;"><rect id="rect2360" x="0" y="0" width="68.031" height="68.031"/><path id="path2318" d="M45.423,52.867c-0.693,0 -1.355,-0.092 -1.988,-0.277c-0.632,-0.185 -1.212,-0.463 -1.738,-0.834c-0.527,-0.37 -0.987,-0.819 -1.378,-1.346c-0.392,-0.541 -0.7,-1.168 -0.926,-1.88l2.868,-1.068c0.211,0.769 0.58,1.41 1.107,1.923c0.527,0.498 1.219,0.748 2.077,0.748c0.317,-0 0.618,-0.036 0.904,-0.107c0.301,-0.086 0.564,-0.2 0.79,-0.342c0.241,-0.157 0.429,-0.349 0.565,-0.577c0.135,-0.228 0.203,-0.491 0.203,-0.79c0,-0.285 -0.053,-0.542 -0.158,-0.77c-0.105,-0.227 -0.286,-0.441 -0.542,-0.641c-0.241,-0.199 -0.565,-0.391 -0.971,-0.576c-0.392,-0.186 -0.881,-0.378 -1.468,-0.577l-0.994,-0.342c-0.436,-0.143 -0.881,-0.335 -1.332,-0.577c-0.437,-0.242 -0.836,-0.534 -1.197,-0.876c-0.362,-0.342 -0.663,-0.741 -0.904,-1.196c-0.225,-0.47 -0.338,-0.997 -0.338,-1.581c-0,-0.599 0.12,-1.154 0.361,-1.667c0.256,-0.527 0.61,-0.983 1.062,-1.367c0.466,-0.399 1.016,-0.705 1.648,-0.919c0.648,-0.228 1.363,-0.342 2.146,-0.342c0.813,0 1.513,0.107 2.1,0.321c0.602,0.199 1.106,0.462 1.513,0.79c0.422,0.313 0.76,0.662 1.016,1.047c0.256,0.385 0.444,0.748 0.565,1.09l-2.688,1.068c-0.15,-0.427 -0.429,-0.812 -0.835,-1.154c-0.392,-0.342 -0.934,-0.513 -1.626,-0.513c-0.663,0 -1.212,0.15 -1.649,0.449c-0.436,0.285 -0.655,0.662 -0.655,1.132c0,0.456 0.211,0.848 0.633,1.176c0.421,0.313 1.091,0.619 2.01,0.918l1.016,0.321c0.647,0.213 1.234,0.463 1.761,0.748c0.542,0.27 1.002,0.598 1.378,0.982c0.391,0.385 0.685,0.826 0.881,1.325c0.21,0.484 0.316,1.047 0.316,1.688c-0,0.798 -0.173,1.488 -0.52,2.072c-0.331,0.57 -0.76,1.04 -1.287,1.41c-0.527,0.371 -1.122,0.649 -1.784,0.834c-0.662,0.185 -1.31,0.277 -1.942,0.277l-0,0Z" style="fill:#fff;fill-rule:nonzero;"/><rect id="rect2332" x="17.311" y="54.315" width="11.191" height="2.604" style="fill:#5b8aee;"/><path id="path2314" d="M22.988,52.867c-1.112,0 -2.146,-0.206 -3.105,-0.619c-0.944,-0.413 -1.764,-0.976 -2.458,-1.688c-0.695,-0.726 -1.243,-1.574 -1.646,-2.543c-0.389,-0.982 -0.583,-2.029 -0.583,-3.14c-0,-1.111 0.194,-2.151 0.583,-3.12c0.403,-0.982 0.951,-1.83 1.646,-2.542c0.694,-0.727 1.514,-1.296 2.458,-1.709c0.959,-0.413 1.993,-0.62 3.105,-0.62c1.111,0 2.138,0.207 3.083,0.62c0.958,0.413 1.785,0.982 2.479,1.709c0.695,0.712 1.236,1.56 1.625,2.542c0.403,0.969 0.604,2.009 0.604,3.12c0,1.111 -0.201,2.158 -0.604,3.14c-0.389,0.969 -0.93,1.817 -1.625,2.543c-0.694,0.712 -1.521,1.275 -2.479,1.688c-0.945,0.413 -1.972,0.619 -3.083,0.619Zm-0,-2.734c0.694,-0 1.34,-0.129 1.937,-0.385c0.611,-0.256 1.139,-0.612 1.583,-1.068c0.459,-0.456 0.813,-1.004 1.063,-1.645c0.264,-0.656 0.396,-1.375 0.396,-2.158c-0,-0.784 -0.132,-1.496 -0.396,-2.137c-0.25,-0.655 -0.604,-1.211 -1.063,-1.666c-0.444,-0.456 -0.972,-0.812 -1.583,-1.069c-0.597,-0.256 -1.243,-0.384 -1.937,-0.384c-0.695,-0 -1.348,0.128 -1.959,0.384c-0.597,0.257 -1.125,0.613 -1.583,1.069c-0.445,0.455 -0.799,1.011 -1.063,1.666c-0.25,0.641 -0.375,1.353 -0.375,2.137c0,0.783 0.125,1.502 0.375,2.158c0.264,0.641 0.618,1.189 1.063,1.645c0.458,0.456 0.986,0.812 1.583,1.068c0.611,0.256 1.264,0.385 1.959,0.385Z" style="fill:#fff;fill-rule:nonzero;"/><path id="path2312" d="M37.326,15.589l2.938,-0l4.838,8.097l0.177,0l4.837,-8.097l2.96,-0l0,15.297l-2.96,0l0,-7.542l0.177,-2.564l-0.177,0l-4.02,6.859l-1.789,-0l-4.043,-6.859l-0.176,0l0.176,2.564l0,7.542l-2.938,0l0,-15.297Z" style="fill:#fff;fill-rule:nonzero;"/><path id="path2308" d="M16.673,15.589l2.982,-0l-0,6.11l6.649,0l-0,-6.11l2.982,-0l-0,15.297l-2.982,0l-0,-6.452l-6.649,-0l-0,6.452l-2.982,0l-0,-15.297Z" style="fill:#fff;fill-rule:nonzero;"/></svg>