<?xml version="1.0" encoding="UTF-8" standalone="no"?><!DOCTYPE svg PUBLIC "-//W3C//DTD SVG 1.1//EN" "http://www.w3.org/Graphics/SVG/1.1/DTD/svg11.dtd"><svg width="100%" height="100%" viewBox="0 0 24 24" version="1.1" xmlns="http://www.w3.org/2000/svg" xmlns:xlink="http://www.w3.org/1999/xlink" xml:space="preserve" xmlns:serif="http://www.serif.com/" style="fill-rule:evenodd;clip-rule:evenodd;stroke-linejoin:round;stroke-miterlimit:2;"><path d="M6.791,23.743l10.432,-0c3.601,-0 6.52,-2.921 6.52,-6.524l-0,-10.438c-0,-3.603 -2.919,-6.524 -6.52,-6.524l-10.432,0c-3.601,0 -6.52,2.921 -6.52,6.524l0,10.438c0,3.603 2.919,6.524 6.52,6.524Z" style="fill:#eceff1;fill-rule:nonzero;stroke:#515151;stroke-width:0.5px;"/><path d="M4.522,7.983c-0.279,-0 -0.508,0.229 -0.508,0.508c-0,0.278 0.229,0.508 0.508,0.508c0.279,-0 0.508,-0.23 0.508,-0.508c0,-0.279 -0.229,-0.508 -0.508,-0.508Z" style="fill:#ffc107;fill-rule:nonzero;"/><path d="M6.655,10.54l0.962,-0.407c0.454,-0.813 1.224,-1.284 2.222,-1.284c0.226,-0 0.439,0.028 0.641,0.075l0.915,-0.386c-0.451,-0.222 -0.968,-0.351 -1.556,-0.351c-1.594,0 -2.73,0.876 -3.184,2.353Zm-1.79,0.756l-0,-1.046l-0.683,0l0,1.335l0.683,-0.289Z" style="fill:#ff5722;fill-rule:nonzero;"/><path d="M4.865,13.155l-0,-1.859l-0.683,0.289l-0,1.858l0.683,-0.288Zm2.296,-1.056c0,-0.78 0.164,-1.442 0.456,-1.966l-0.962,0.407c-0.143,0.464 -0.222,0.984 -0.222,1.559c-0,0.134 0.018,0.254 0.026,0.382l0.708,-0.299c-0,-0.029 -0.006,-0.054 -0.006,-0.083Zm9.12,-3.766c-0.186,0.058 -0.358,0.13 -0.516,0.218l0.516,-0.218Zm-4.886,0.205l-0.915,0.386c0.685,0.158 1.219,0.575 1.567,1.197l0.681,-0.288c-0.312,-0.581 -0.767,-1.016 -1.333,-1.295Z" style="fill:#f44336;fill-rule:nonzero;"/><path d="M4.865,15.014l-0,-1.859l-0.683,0.288l-0,1.859l0.683,-0.288Zm11.416,-6.681l-0.516,0.218c-0.656,0.365 -1.052,0.976 -1.052,1.72c0,0.202 0.031,0.381 0.078,0.55l0.688,-0.29c-0.022,-0.088 -0.037,-0.18 -0.037,-0.28c0,-0.818 0.745,-1.412 1.823,-1.412c0.53,0 0.978,0.142 1.305,0.386l0.699,-0.295c-0.463,-0.456 -1.157,-0.742 -1.983,-0.742c-0.365,-0.001 -0.702,0.052 -1.005,0.145Zm-9.114,3.85l-0.708,0.299c0.039,0.639 0.173,1.207 0.398,1.691l0.669,-0.283c-0.223,-0.476 -0.349,-1.05 -0.359,-1.707Zm5.561,-2.349l-0.681,0.288c0.254,0.455 0.402,1.021 0.438,1.673l0.708,-0.298c-0.063,-0.632 -0.215,-1.196 -0.465,-1.663Z" style="fill:#e91e63;fill-rule:nonzero;"/><path d="M13.073,13.405c0.097,-0.401 0.161,-0.831 0.161,-1.306c0,-0.211 -0.022,-0.406 -0.042,-0.603l-0.707,0.299c0.006,0.102 0.02,0.197 0.02,0.304c-0,0.645 -0.118,1.206 -0.321,1.682l0.889,-0.376Zm-5.546,0.484l-0.67,0.283c0.272,0.586 0.672,1.045 1.185,1.359l0.839,-0.354c-0.601,-0.226 -1.063,-0.668 -1.354,-1.288Zm-2.662,1.125l-0.683,0.288l0,0.557l0.683,0l-0,-0.845Zm10.615,-4.484l-0.688,0.291c0.163,0.577 0.61,0.98 1.419,1.259l1.067,-0.451l-0.225,-0.056c-0.972,-0.243 -1.449,-0.555 -1.573,-1.043Zm3.666,-0.348l0.719,0c-0.034,-0.487 -0.253,-0.915 -0.596,-1.253l-0.698,0.296c0.314,0.234 0.519,0.564 0.575,0.957Z" style="fill:#9c27b0;fill-rule:nonzero;"/><path d="M13.073,13.405l-0.889,0.376c-0.419,0.984 -1.233,1.573 -2.346,1.573c-0.352,0 -0.667,-0.069 -0.958,-0.178l-0.839,0.354c0.502,0.306 1.099,0.485 1.797,0.485c1.695,0 2.841,-0.988 3.235,-2.61Zm2.146,0.501l-0.719,0c0.017,0.245 0.085,0.47 0.176,0.681l0.659,-0.279c-0.056,-0.126 -0.1,-0.259 -0.116,-0.402Zm2.578,-2.145l-0.52,-0.131l-1.066,0.451c0.156,0.054 0.324,0.104 0.508,0.149l0.859,0.219c0.476,0.117 0.838,0.266 1.106,0.446l0.803,-0.34c-0.352,-0.343 -0.902,-0.599 -1.69,-0.794Z" style="fill:#3f51b5;fill-rule:nonzero;"/><path d="M15.335,14.309l-0.659,0.278c0.251,0.58 0.759,1.021 1.444,1.249l1.128,-0.476c-0.919,-0.022 -1.638,-0.429 -1.913,-1.051Zm4.608,-0.087c0.023,-0.129 0.042,-0.26 0.042,-0.399c-0,-0.522 -0.156,-0.936 -0.497,-1.268l-0.803,0.34c0.386,0.26 0.57,0.588 0.57,1.006c0,0.262 -0.087,0.5 -0.232,0.709l0.92,-0.388Z" style="fill:#03a9f4;fill-rule:nonzero;"/><path d="M19.943,14.222l-0.92,0.389c-0.314,0.454 -0.929,0.754 -1.7,0.754c-0.026,0 -0.049,-0.004 -0.074,-0.004l-1.128,0.476c0.342,0.114 0.724,0.179 1.14,0.179c1.471,-0.001 2.482,-0.707 2.682,-1.794Z" style="fill:#009688;fill-rule:nonzero;"/></svg>