<?xml version="1.0" encoding="UTF-8" standalone="no"?><!DOCTYPE svg PUBLIC "-//W3C//DTD SVG 1.1//EN" "http://www.w3.org/Graphics/SVG/1.1/DTD/svg11.dtd"><svg width="100%" height="100%" viewBox="0 0 24 24" version="1.1" xmlns="http://www.w3.org/2000/svg" xmlns:xlink="http://www.w3.org/1999/xlink" xml:space="preserve" xmlns:serif="http://www.serif.com/" style="fill-rule:evenodd;clip-rule:evenodd;stroke-linejoin:round;stroke-miterlimit:2;"><path d="M0.758,5.964c-0.416,0 -0.758,0.342 -0.758,0.758c0,0.414 0.342,0.757 0.758,0.757c0.416,0 0.757,-0.343 0.757,-0.757c0,-0.416 -0.341,-0.758 -0.757,-0.758Z" style="fill:#ffc107;fill-rule:nonzero;"/><path d="M3.938,9.777l1.435,-0.607c0.677,-1.212 1.825,-1.914 3.314,-1.914c0.337,-0 0.654,0.041 0.956,0.111l1.364,-0.575c-0.672,-0.331 -1.443,-0.524 -2.32,-0.524c-2.377,0 -4.071,1.307 -4.749,3.509Zm-2.669,1.128l0,-1.56l-1.018,-0l-0,1.991l1.018,-0.431Z" style="fill:#ff5722;fill-rule:nonzero;"/><path d="M1.269,13.677l0,-2.772l-1.018,0.431l-0,2.77l1.018,-0.429Zm3.424,-1.575c0,-1.163 0.245,-2.15 0.68,-2.932l-1.435,0.607c-0.213,0.692 -0.331,1.468 -0.331,2.325c0,0.2 0.027,0.379 0.039,0.57l1.056,-0.446c0,-0.043 -0.009,-0.081 -0.009,-0.124Zm13.601,-5.616c-0.278,0.087 -0.534,0.194 -0.77,0.325l0.77,-0.325Zm-7.287,0.306l-1.364,0.575c1.021,0.236 1.817,0.858 2.336,1.785l1.016,-0.429c-0.465,-0.867 -1.144,-1.515 -1.988,-1.931Z" style="fill:#f44336;fill-rule:nonzero;"/><path d="M1.269,16.449l0,-2.772l-1.018,0.429l-0,2.773l1.018,-0.43Zm17.025,-9.963l-0.77,0.325c-0.978,0.544 -1.569,1.456 -1.569,2.565c0,0.301 0.046,0.568 0.117,0.82l1.026,-0.432c-0.033,-0.131 -0.056,-0.269 -0.056,-0.418c0,-1.22 1.111,-2.105 2.719,-2.105c0.79,-0 1.458,0.211 1.946,0.575l1.042,-0.44c-0.69,-0.68 -1.725,-1.106 -2.957,-1.106c-0.544,-0.002 -1.047,0.077 -1.498,0.216Zm-13.592,5.741l-1.056,0.446c0.058,0.953 0.258,1.8 0.594,2.522l0.997,-0.422c-0.332,-0.71 -0.52,-1.566 -0.535,-2.546Zm8.293,-3.503l-1.016,0.43c0.379,0.678 0.6,1.523 0.654,2.495l1.055,-0.445c-0.093,-0.942 -0.32,-1.783 -0.693,-2.48Z" style="fill:#e91e63;fill-rule:nonzero;"/><path d="M13.51,14.05c0.144,-0.598 0.24,-1.239 0.24,-1.948c-0,-0.314 -0.033,-0.605 -0.063,-0.899l-1.054,0.446c0.009,0.152 0.029,0.294 0.029,0.453c0,0.962 -0.176,1.799 -0.478,2.509l1.326,-0.561Zm-8.271,0.722l-0.999,0.422c0.405,0.873 1.002,1.558 1.767,2.026l1.251,-0.528c-0.896,-0.337 -1.585,-0.996 -2.019,-1.92Zm-3.97,1.677l-1.018,0.43l-0,0.83l1.018,0l0,-1.26Zm15.83,-6.687l-1.026,0.434c0.243,0.861 0.91,1.462 2.116,1.878l1.591,-0.673l-0.335,-0.083c-1.45,-0.363 -2.161,-0.828 -2.346,-1.556Zm5.467,-0.519l1.072,0c-0.05,-0.726 -0.377,-1.364 -0.889,-1.868l-1.04,0.441c0.468,0.349 0.774,0.841 0.857,1.427Z" style="fill:#9c27b0;fill-rule:nonzero;"/><path d="M13.51,14.05l-1.326,0.561c-0.625,1.467 -1.839,2.345 -3.499,2.345c-0.525,0 -0.994,-0.103 -1.428,-0.265l-1.252,0.528c0.749,0.456 1.639,0.723 2.68,0.723c2.528,0 4.237,-1.473 4.825,-3.892Zm3.2,0.747l-1.072,-0c0.025,0.365 0.126,0.701 0.262,1.015l0.983,-0.416c-0.084,-0.187 -0.149,-0.386 -0.173,-0.599Zm3.844,-3.199l-0.775,-0.195l-1.59,0.672c0.233,0.081 0.483,0.155 0.758,0.223l1.281,0.326c0.71,0.175 1.249,0.397 1.649,0.665l1.198,-0.507c-0.525,-0.511 -1.346,-0.893 -2.521,-1.184Z" style="fill:#3f51b5;fill-rule:nonzero;"/><path d="M16.883,15.398l-0.983,0.414c0.374,0.865 1.132,1.523 2.153,1.863l1.683,-0.71c-1.371,-0.033 -2.443,-0.64 -2.853,-1.567Zm6.872,-0.13c0.034,-0.192 0.062,-0.388 0.062,-0.595c0,-0.778 -0.232,-1.396 -0.741,-1.891l-1.197,0.507c0.575,0.388 0.85,0.877 0.85,1.5c-0,0.391 -0.13,0.746 -0.346,1.058l1.372,-0.579Z" style="fill:#03a9f4;fill-rule:nonzero;"/><path d="M23.755,15.268l-1.372,0.58c-0.469,0.677 -1.386,1.125 -2.536,1.125c-0.038,-0 -0.073,-0.006 -0.11,-0.006l-1.682,0.71c0.51,0.17 1.08,0.267 1.7,0.267c2.194,-0.002 3.701,-1.055 4,-2.676Z" style="fill:#009688;fill-rule:nonzero;"/></svg>