<!DOCTYPE svg PUBLIC "-//W3C//DTD SVG 1.1//EN" "http://www.w3.org/Graphics/SVG/1.1/DTD/svg11.dtd"><svg width="100%" height="100%" viewBox="0 0 24 24" version="1.1" xmlns="http://www.w3.org/2000/svg" xmlns:xlink="http://www.w3.org/1999/xlink" xml:space="preserve" xmlns:serif="http://www.serif.com/" style="fill-rule:evenodd;clip-rule:evenodd;stroke-linejoin:round;stroke-miterlimit:2;"><path d="M15.6,20.4l8.4,-0l0,2.4l-8.4,-0c0,0.659 -0.541,1.2 -1.2,1.2l-4.8,0c-0.659,0 -1.2,-0.541 -1.2,-1.2l-8.4,-0l-0,-2.4l8.4,-0c-0,-0.659 0.541,-1.2 1.2,-1.2l1.2,0l-0,-2.4l-7.2,-0c-1.316,-0 -2.4,-1.084 -2.4,-2.4l-0,-12c-0,-1.316 1.084,-2.4 2.4,-2.4l16.8,-0c1.316,-0 2.4,1.084 2.4,2.4l0,12c0,1.316 -1.084,2.4 -2.4,2.4l-7.2,-0l-0,2.4l1.2,0c0.659,0 1.2,0.541 1.2,1.2Zm-12,-6l16.8,-0l0,-12l-16.8,-0l-0,12Zm1.926,-1.19l-0,-9.449l1.56,-0l-0,9.449l-1.56,-0Zm2.636,0.01l0,-9.448l2.514,-0c0.938,-0 1.55,0.044 1.838,0.135c0.459,0.145 0.838,0.457 1.137,0.934c0.299,0.477 0.448,1.092 0.448,1.843c-0,0.684 -0.129,1.256 -0.387,1.718c-0.258,0.462 -0.579,0.786 -0.967,0.974c-0.386,0.187 -1.052,0.28 -1.998,0.28l-1.025,0l0,3.564l-1.56,0Zm1.56,-7.85l0,2.681l0.864,-0c0.58,-0 0.975,-0.041 1.184,-0.123c0.207,-0.081 0.379,-0.229 0.512,-0.441c0.133,-0.213 0.199,-0.474 0.199,-0.783c0,-0.314 -0.068,-0.578 -0.206,-0.793c-0.137,-0.215 -0.307,-0.359 -0.509,-0.432c-0.202,-0.073 -0.63,-0.109 -1.283,-0.109l-0.761,0Zm7.462,7.84l-0,-1.902l-3.17,-0l-0,-1.586l3.357,-6l1.251,0l-0,5.994l0.96,0l-0,1.592l-0.96,-0l-0,1.902l-1.438,-0Zm-0,-3.494l-0,-3.229l-1.778,3.229l1.778,0Z" style="fill:#00796B"/></svg>