<!DOCTYPE svg PUBLIC "-//W3C//DTD SVG 1.1//EN" "http://www.w3.org/Graphics/SVG/1.1/DTD/svg11.dtd"><svg width="100%" height="100%" viewBox="0 0 24 24" version="1.1" xmlns="http://www.w3.org/2000/svg" xmlns:xlink="http://www.w3.org/1999/xlink" xml:space="preserve" xmlns:serif="http://www.serif.com/" style="fill-rule:evenodd;clip-rule:evenodd;stroke-linejoin:round;stroke-miterlimit:2;"><path d="M24,20.4l0,2.4l-8.4,-0c0,0.659 -0.541,1.2 -1.2,1.2l-4.8,0c-0.659,0 -1.2,-0.541 -1.2,-1.2l-8.4,-0l-0,-2.4l8.4,-0c-0,-0.659 0.541,-1.2 1.2,-1.2l1.2,0l-0,-2.4l-8.4,-0c-1.316,-0 -2.4,-1.084 -2.4,-2.4l-0,-12c-0,-1.316 1.084,-2.4 2.4,-2.4l19.2,-0c1.316,-0 2.4,1.084 2.4,2.4l0,12c0,1.316 -1.084,2.4 -2.4,2.4l-8.4,-0l-0,2.4l1.2,0c0.659,0 1.2,0.541 1.2,1.2l8.4,-0Zm-1.781,-15.08c-0.137,-1.007 -0.456,-1.757 -0.956,-2.253c-0.501,-0.494 -1.114,-0.741 -1.841,-0.741c-1.056,-0 -1.92,0.483 -2.592,1.452c-0.673,0.967 -1.009,2.553 -1.009,4.756c-0,2.172 0.324,3.726 0.972,4.665c0.648,0.937 1.464,1.406 2.448,1.406c0.897,0 1.649,-0.361 2.256,-1.082c0.607,-0.723 0.911,-1.717 0.911,-2.987c-0,-1.192 -0.287,-2.147 -0.862,-2.867c-0.574,-0.719 -1.247,-1.079 -2.017,-1.079c-0.351,0 -0.671,0.086 -0.96,0.255c-0.291,0.17 -0.553,0.423 -0.789,0.763c0.072,-1.362 0.243,-2.267 0.514,-2.716c0.27,-0.447 0.611,-0.672 1.021,-0.672c0.629,0 0.987,0.448 1.074,1.346l1.83,-0.246Zm-4.274,5.028c-0,-0.683 0.126,-1.198 0.378,-1.542c0.251,-0.345 0.557,-0.518 0.918,-0.518c0.372,0 0.684,0.182 0.936,0.543c0.251,0.36 0.377,0.935 0.377,1.722c-0,0.761 -0.117,1.307 -0.35,1.64c-0.231,0.334 -0.523,0.501 -0.873,0.501c-0.36,-0 -0.682,-0.201 -0.964,-0.603c-0.281,-0.402 -0.422,-0.983 -0.422,-1.743Zm-10.745,4.052l2.4,-0l-0,-4.8l2.4,-0c1.316,-0 2.4,-1.084 2.4,-2.4l-0,-2.4c-0,-1.316 -1.084,-2.4 -2.4,-2.4l-4.8,-0l-0,12Zm4.8,-7.2l-2.4,-0l-0,-2.4l2.4,0l-0,2.4Zm-7.2,-4.8l-2.4,-0l-0,12l2.4,-0l-0,-12Z" style="fill:#558B2F"/></svg>