<?xml version="1.0" encoding="UTF-8" standalone="no"?><!DOCTYPE svg PUBLIC "-//W3C//DTD SVG 1.1//EN" "http://www.w3.org/Graphics/SVG/1.1/DTD/svg11.dtd"><svg width="100%" height="100%" viewBox="0 0 24 24" version="1.1" xmlns="http://www.w3.org/2000/svg" xmlns:xlink="http://www.w3.org/1999/xlink" xml:space="preserve" xmlns:serif="http://www.serif.com/" style="fill-rule:evenodd;clip-rule:evenodd;stroke-linejoin:round;stroke-miterlimit:2;"><path d="M15.435,3.92c-0.839,1.027 -2.182,1.838 -3.526,1.721c-0.167,-1.388 0.491,-2.866 1.261,-3.776c0.838,-1.056 2.307,-1.808 3.497,-1.865c0.139,1.446 -0.406,2.864 -1.232,3.92m5.536,12.196c-1.041,-0.781 -1.708,-1.673 -1.708,-2.854c0,-1.18 0.577,-1.981 1.194,-2.581c0.577,-0.562 0.792,-1.382 0.343,-2.044c-1.409,-2.077 -3.551,-2.63 -4.594,-2.63c-1.161,0 -2.05,0.358 -2.764,0.647c-0.485,0.196 -0.868,0.259 -1.216,0.259c-0.424,-0 -0.987,-0.123 -1.532,-0.331c-0.718,-0.276 -1.461,-0.56 -2.283,-0.56c-2.122,0 -3.784,1.033 -4.932,3.056c-2.281,3.911 -0.408,9.299 1.301,11.771c0.755,1.1 2.16,3.149 4.486,3.149l0.003,0c0.841,-0.031 1.427,-0.27 1.9,-0.462c0.419,-0.171 0.698,-0.284 1.207,-0.284c0.488,0 0.77,0.113 1.197,0.282c0.521,0.208 1.168,0.466 2.116,0.466c2.128,-0 3.284,-1.693 4.245,-3.1c0.924,-1.341 1.393,-2.665 1.544,-3.161c0.188,-0.545 0.154,-1.065 -0.507,-1.623Z" style="fill:url(#_Linear1);fill-rule:nonzero;"/><defs><linearGradient id="_Linear1" x1="0" y1="0" x2="1" y2="0" gradientUnits="userSpaceOnUse" gradientTransform="matrix(1.88182e-15,30.7325,-30.7325,1.88182e-15,12.0021,-5.14511)"><stop offset="0" style="stop-color:#6d6d6d;stop-opacity:1"/><stop offset="0.44" style="stop-color:#626262;stop-opacity:1"/><stop offset="0.99" style="stop-color:#464646;stop-opacity:1"/><stop offset="1" style="stop-color:#454545;stop-opacity:1"/><stop offset="1" style="stop-color:#454545;stop-opacity:1"/></linearGradient></defs></svg>