<?xml version="1.0" encoding="UTF-8" standalone="no"?><!DOCTYPE svg PUBLIC "-//W3C//DTD SVG 1.1//EN" "http://www.w3.org/Graphics/SVG/1.1/DTD/svg11.dtd"><svg width="100%" height="100%" viewBox="0 0 24 24" version="1.1" xmlns="http://www.w3.org/2000/svg" xmlns:xlink="http://www.w3.org/1999/xlink" xml:space="preserve" xmlns:serif="http://www.serif.com/" style="fill-rule:evenodd;clip-rule:evenodd;stroke-linejoin:round;stroke-miterlimit:2;"><path d="M12,0c6.623,0 12,5.377 12,12c0,6.623 -5.377,12 -12,12c-6.623,0 -12,-5.377 -12,-12c0,-6.623 5.377,-12 12,-12Zm7.967,15.655c-0.925,-0.693 -1.517,-1.486 -1.517,-2.534c-0,-1.048 0.512,-1.759 1.06,-2.292c0.512,-0.499 0.703,-1.228 0.305,-1.815c-1.252,-1.845 -3.154,-2.336 -4.08,-2.336c-1.031,0 -1.82,0.318 -2.454,0.575c-0.431,0.174 -0.771,0.23 -1.08,0.23c-0.377,-0 -0.877,-0.11 -1.361,-0.294c-0.637,-0.245 -1.297,-0.498 -2.027,-0.498c-1.884,0 -3.36,0.918 -4.38,2.714c-2.025,3.473 -0.362,8.258 1.156,10.453c0.67,0.977 1.918,2.796 3.983,2.796l0.003,0c0.747,-0.027 1.267,-0.239 1.687,-0.41c0.372,-0.152 0.62,-0.252 1.072,-0.252c0.433,0 0.684,0.1 1.063,0.25c0.463,0.185 1.037,0.414 1.879,0.414c1.89,0 2.916,-1.503 3.77,-2.753c0.82,-1.19 1.237,-2.366 1.371,-2.807c0.167,-0.484 0.137,-0.945 -0.45,-1.441Zm-4.917,-10.83c0.734,-0.938 1.218,-2.197 1.094,-3.481c-1.056,0.05 -2.361,0.718 -3.105,1.656c-0.684,0.808 -1.268,2.121 -1.12,3.353c1.194,0.104 2.386,-0.616 3.131,-1.528Z" style="fill:#777;"/></svg>