<?xml version="1.0" encoding="UTF-8" standalone="no"?><!DOCTYPE svg PUBLIC "-//W3C//DTD SVG 1.1//EN" "http://www.w3.org/Graphics/SVG/1.1/DTD/svg11.dtd"><svg width="100%" height="100%" viewBox="0 0 24 24" version="1.1" xmlns="http://www.w3.org/2000/svg" xmlns:xlink="http://www.w3.org/1999/xlink" xml:space="preserve" xmlns:serif="http://www.serif.com/" style="fill-rule:evenodd;clip-rule:evenodd;stroke-linejoin:round;stroke-miterlimit:2;"><path id="path2" d="M11.153,14.569c-0,2.019 -1.052,3.29 -2.732,3.29c-1.68,-0 -2.732,-1.278 -2.732,-3.29c0,-2.025 1.052,-3.296 2.732,-3.296c1.68,-0 2.732,1.271 2.732,3.296Zm2.343,-7.122l-0.734,0.049c-0.416,0.029 -0.6,0.177 -0.6,0.445c0,0.283 0.233,0.438 0.558,0.438c0.445,-0 0.776,-0.29 0.776,-0.678l0,-0.254Zm10.504,4.553c0,6.699 -5.301,12 -12,12c-6.699,-0 -12,-5.301 -12,-12c0,-6.699 5.301,-12 12,-12c6.699,-0 12,5.301 12,12Zm-9.219,-4.701c0,0.974 0.537,1.567 1.412,1.567c0.741,-0 1.207,-0.417 1.285,-1.01l-0.579,0c-0.078,0.325 -0.332,0.502 -0.706,0.502c-0.494,-0 -0.798,-0.403 -0.798,-1.059c0,-0.65 0.304,-1.038 0.798,-1.038c0.395,0 0.642,0.226 0.706,0.515l0.579,0c-0.078,-0.578 -0.53,-1.016 -1.285,-1.016c-0.875,-0.007 -1.412,0.586 -1.412,1.539Zm-8.068,-1.483l-0,2.993l0.593,0l-0,-1.835c-0,-0.388 0.275,-0.699 0.635,-0.699c0.353,0 0.579,0.212 0.579,0.551l-0,1.983l0.579,0l-0,-1.891c-0,-0.36 0.247,-0.643 0.635,-0.643c0.388,0 0.579,0.198 0.579,0.614l-0,1.92l0.593,0l-0,-2.068c-0,-0.621 -0.353,-0.988 -0.96,-0.988c-0.417,-0 -0.762,0.212 -0.911,0.536l-0.049,0c-0.134,-0.324 -0.417,-0.536 -0.826,-0.536c-0.402,-0 -0.706,0.198 -0.833,0.536l-0.042,0l-0,-0.48l-0.572,0.007Zm5.492,8.753c-0,-2.604 -1.454,-4.242 -3.784,-4.242c-2.329,0 -3.783,1.638 -3.783,4.242c-0,2.605 1.454,4.236 3.783,4.236c2.33,-0 3.784,-1.638 3.784,-4.236Zm0.367,-5.71c0.395,-0 0.72,-0.17 0.903,-0.473l0.05,-0l-0,0.423l0.571,0l0,-2.047c0,-0.628 -0.423,-1.002 -1.178,-1.002c-0.685,0 -1.165,0.332 -1.229,0.833l0.572,-0c0.064,-0.219 0.297,-0.339 0.628,-0.339c0.403,0 0.615,0.184 0.615,0.515l-0,0.262l-0.812,0.049c-0.713,0.042 -1.116,0.353 -1.116,0.896c-0.007,0.537 0.417,0.883 0.996,0.883Zm6.473,7.475c-0,-1.165 -0.678,-1.842 -2.386,-2.216l-0.911,-0.198c-1.122,-0.247 -1.56,-0.692 -1.56,-1.334c0,-0.833 0.791,-1.334 1.814,-1.334c1.073,-0 1.779,0.55 1.871,1.454l1.023,-0c-0.049,-1.391 -1.228,-2.372 -2.865,-2.372c-1.702,0 -2.895,0.953 -2.895,2.301c0,1.165 0.713,1.913 2.358,2.273l0.911,0.198c1.136,0.247 1.595,0.706 1.595,1.39c-0,0.805 -0.812,1.391 -1.92,1.391c-1.179,0 -1.998,-0.536 -2.118,-1.419l-1.023,0c0.099,1.419 1.292,2.337 3.085,2.337c1.828,-0 3.021,-0.953 3.021,-2.471Z" style="fill:#1d1d1f;fill-rule:nonzero;"/></svg>