<?xml version="1.0" encoding="UTF-8" standalone="no"?><!DOCTYPE svg PUBLIC "-//W3C//DTD SVG 1.1//EN" "http://www.w3.org/Graphics/SVG/1.1/DTD/svg11.dtd"><svg width="100%" height="100%" viewBox="0 0 191 191" version="1.1" xmlns="http://www.w3.org/2000/svg" xmlns:xlink="http://www.w3.org/1999/xlink" xml:space="preserve" xmlns:serif="http://www.serif.com/" style="fill-rule:evenodd;clip-rule:evenodd;stroke-linejoin:round;stroke-miterlimit:2;"><path id="Logo0" d="M20.631,115.731c-0,7.294 1.6,12.893 3.692,16.28c2.743,4.437 6.835,6.317 11.006,6.317c5.38,0 10.302,-1.334 19.787,-14.453c7.599,-10.515 16.553,-25.273 22.577,-34.525l10.201,-15.676c7.088,-10.886 15.291,-22.988 24.696,-31.191c7.678,-6.695 15.961,-10.414 24.296,-10.414c13.995,-0 27.326,8.11 37.529,23.32c11.165,16.658 16.585,37.64 16.585,59.294c0,12.872 -2.537,22.33 -6.855,29.802c-4.171,7.227 -12.301,14.446 -25.977,14.446l0,-20.603c11.71,0 14.632,-10.759 14.632,-23.074c0,-17.549 -4.091,-37.024 -13.104,-50.939c-6.396,-9.869 -14.686,-15.9 -23.805,-15.9c-9.864,-0 -17.802,7.438 -26.721,20.702c-4.743,7.047 -9.612,15.636 -15.078,25.327l-6.017,10.66c-12.09,21.435 -15.151,26.317 -21.196,34.374c-10.594,14.107 -19.64,19.453 -31.55,19.453c-14.128,0 -23.061,-6.117 -28.594,-15.336c-4.516,-7.512 -6.735,-17.369 -6.735,-28.6l20.631,0.736Z" style="fill:#0081fb;fill-rule:nonzero;"/><path id="Logo1" d="M16.267,56.843c9.458,-14.58 23.108,-24.774 38.762,-24.774c9.067,-0 18.081,2.683 27.493,10.368c10.295,8.402 21.267,22.238 34.957,45.039l4.908,8.183c11.849,19.741 18.591,29.897 22.536,34.686c5.076,6.15 8.629,7.983 13.245,7.983c11.71,0 14.632,-10.759 14.632,-23.074l18.2,-0.571c0,12.872 -2.537,22.33 -6.855,29.802c-4.171,7.227 -12.301,14.446 -25.977,14.446c-8.502,0 -16.034,-1.845 -24.363,-9.703c-6.403,-6.031 -13.889,-16.745 -19.647,-26.375l-17.131,-28.615c-8.594,-14.36 -16.479,-25.068 -21.042,-29.916c-4.908,-5.214 -11.218,-11.511 -21.287,-11.511c-8.15,-0 -15.071,5.719 -20.863,14.467l-17.568,-10.435Z" style="fill:url(#_Linear1);fill-rule:nonzero;"/><path id="Logo2" d="M54.698,52.811c-8.15,-0 -15.071,5.719 -20.863,14.467c-8.19,12.36 -13.204,30.772 -13.204,48.453c-0,7.294 1.6,12.893 3.692,16.28l-17.588,11.584c-4.516,-7.512 -6.735,-17.369 -6.735,-28.6c-0,-20.425 5.606,-41.713 16.267,-58.152c9.458,-14.58 23.108,-24.774 38.762,-24.774l-0.331,20.742Z" style="fill:url(#_Linear2);fill-rule:nonzero;"/><defs><linearGradient id="_Linear1" x1="0" y1="0" x2="1" y2="0" gradientUnits="userSpaceOnUse" gradientTransform="matrix(131.514,6.64209,-6.64209,131.514,40.5168,109.781)"><stop offset="0" style="stop-color:#0064e1;stop-opacity:1"/><stop offset="0.4" style="stop-color:#0064e1;stop-opacity:1"/><stop offset="0.83" style="stop-color:#0073ee;stop-opacity:1"/><stop offset="1" style="stop-color:#0082fb;stop-opacity:1"/></linearGradient><linearGradient id="_Linear2" x1="0" y1="0" x2="1" y2="0" gradientUnits="userSpaceOnUse" gradientTransform="matrix(2.96899e-15,-48.4872,48.4872,2.96899e-15,29.8895,124.393)"><stop offset="0" style="stop-color:#0082fb;stop-opacity:1"/><stop offset="1" style="stop-color:#0064e0;stop-opacity:1"/></linearGradient></defs></svg>