<?xml version="1.0" encoding="UTF-8" standalone="no"?><!DOCTYPE svg PUBLIC "-//W3C//DTD SVG 1.1//EN" "http://www.w3.org/Graphics/SVG/1.1/DTD/svg11.dtd"><svg width="100%" height="100%" viewBox="0 0 191 191" version="1.1" xmlns="http://www.w3.org/2000/svg" xmlns:xlink="http://www.w3.org/1999/xlink" xml:space="preserve" xmlns:serif="http://www.serif.com/" style="fill-rule:evenodd;clip-rule:evenodd;stroke-linejoin:round;stroke-miterlimit:2;"><circle cx="95.5" cy="95.5" r="95.5" style="fill:#ebebeb;"/><path id="Logo0" d="M27.804,104.326c-0,6.595 1.447,11.657 3.339,14.72c2.48,4.012 6.18,5.712 9.951,5.712c4.865,-0 9.315,-1.207 17.891,-13.069c6.871,-9.507 14.967,-22.851 20.414,-31.217l9.224,-14.174c6.409,-9.843 13.826,-20.785 22.33,-28.202c6.942,-6.054 14.431,-9.417 21.968,-9.417c12.654,-0 24.708,7.333 33.933,21.086c10.095,15.062 14.996,34.034 14.996,53.613c-0,11.639 -2.294,20.191 -6.198,26.947c-3.772,6.534 -11.123,13.062 -23.488,13.062l-0,-18.629c10.588,-0 13.23,-9.729 13.23,-20.864c0,-15.867 -3.699,-33.476 -11.849,-46.058c-5.783,-8.924 -13.279,-14.377 -21.524,-14.377c-8.919,-0 -16.096,6.726 -24.161,18.719c-4.288,6.372 -8.691,14.138 -13.633,22.9l-5.441,9.639c-10.931,19.381 -13.699,23.795 -19.165,31.08c-9.579,12.756 -17.758,17.59 -28.527,17.59c-12.774,0 -20.851,-5.531 -25.854,-13.867c-4.084,-6.792 -6.09,-15.705 -6.09,-25.86l18.654,0.666Z" style="fill:#0081fb;fill-rule:nonzero;"/><path id="Logo1" d="M23.858,51.08c8.552,-13.183 20.894,-22.401 35.049,-22.401c8.198,-0 16.348,2.426 24.858,9.375c9.309,7.597 19.23,20.107 31.608,40.724l4.438,7.399c10.714,17.849 16.81,27.032 20.377,31.362c4.589,5.561 7.802,7.219 11.976,7.219c10.588,-0 13.23,-9.729 13.23,-20.864l16.456,-0.516c-0,11.639 -2.294,20.191 -6.198,26.947c-3.772,6.534 -11.123,13.062 -23.488,13.062c-7.688,0 -14.498,-1.669 -22.029,-8.774c-5.79,-5.453 -12.558,-15.14 -17.765,-23.848l-15.489,-25.873c-7.771,-12.984 -14.9,-22.666 -19.026,-27.05c-4.438,-4.714 -10.143,-10.408 -19.248,-10.408c-7.369,0 -13.627,5.171 -18.864,13.081l-15.885,-9.435Z" style="fill:url(#_Linear1);fill-rule:nonzero;"/><path id="Logo2" d="M58.607,47.434c-7.369,0 -13.627,5.171 -18.864,13.081c-7.405,11.176 -11.939,27.824 -11.939,43.811c-0,6.595 1.447,11.657 3.339,14.72l-15.903,10.474c-4.084,-6.792 -6.09,-15.705 -6.09,-25.86c0,-18.468 5.069,-37.716 14.708,-52.58c8.552,-13.183 20.894,-22.401 35.049,-22.401l-0.3,18.755Z" style="fill:url(#_Linear2);fill-rule:nonzero;"/><defs><linearGradient id="_Linear1" x1="0" y1="0" x2="1" y2="0" gradientUnits="userSpaceOnUse" gradientTransform="matrix(118.913,6.0057,-6.0057,118.913,45.7848,98.9453)"><stop offset="0" style="stop-color:#0064e1;stop-opacity:1"/><stop offset="0.4" style="stop-color:#0064e1;stop-opacity:1"/><stop offset="0.83" style="stop-color:#0073ee;stop-opacity:1"/><stop offset="1" style="stop-color:#0082fb;stop-opacity:1"/></linearGradient><linearGradient id="_Linear2" x1="0" y1="0" x2="1" y2="0" gradientUnits="userSpaceOnUse" gradientTransform="matrix(2.68452e-15,-43.8416,43.8416,2.68452e-15,36.1757,112.158)"><stop offset="0" style="stop-color:#0082fb;stop-opacity:1"/><stop offset="1" style="stop-color:#0064e0;stop-opacity:1"/></linearGradient></defs></svg>