<?xml version="1.0" encoding="UTF-8" standalone="no"?><!DOCTYPE svg PUBLIC "-//W3C//DTD SVG 1.1//EN" "http://www.w3.org/Graphics/SVG/1.1/DTD/svg11.dtd"><svg width="100%" height="100%" viewBox="0 0 24 24" version="1.1" xmlns="http://www.w3.org/2000/svg" xmlns:xlink="http://www.w3.org/1999/xlink" xml:space="preserve" xmlns:serif="http://www.serif.com/" style="fill-rule:evenodd;clip-rule:evenodd;stroke-linejoin:round;stroke-miterlimit:2;"><path d="M21.666,17.859c-0.322,0.168 -0.654,0.315 -0.994,0.441c-1.077,0.401 -2.217,0.604 -3.366,0.6c-4.434,-0 -8.297,-3.047 -8.297,-6.966c0.012,-1.067 0.601,-2.048 1.538,-2.559c-4.013,0.169 -5.044,4.35 -5.044,6.797c0,6.937 6.384,7.631 7.763,7.631c0.74,0 1.856,-0.216 2.531,-0.431l0.122,-0.038c2.582,-0.892 4.785,-2.639 6.244,-4.95c0.035,-0.058 0.053,-0.125 0.053,-0.193c0,-0.206 -0.169,-0.375 -0.375,-0.375c-0.061,-0 -0.121,0.015 -0.175,0.043Z" style="fill:url(#_Linear1);fill-rule:nonzero;"/><path d="M21.666,17.859c-0.322,0.168 -0.654,0.315 -0.994,0.441c-1.077,0.401 -2.217,0.604 -3.366,0.6c-4.434,-0 -8.297,-3.047 -8.297,-6.966c0.012,-1.067 0.601,-2.048 1.538,-2.559c-4.013,0.169 -5.044,4.35 -5.044,6.797c0,6.937 6.384,7.631 7.763,7.631c0.74,0 1.856,-0.216 2.531,-0.431l0.122,-0.038c2.582,-0.892 4.785,-2.639 6.244,-4.95c0.035,-0.058 0.053,-0.125 0.053,-0.193c0,-0.206 -0.169,-0.375 -0.375,-0.375c-0.061,-0 -0.121,0.015 -0.175,0.043Z" style="fill:url(#_Radial2);fill-rule:nonzero;"/><path d="M9.909,22.622c-0.834,-0.518 -1.557,-1.197 -2.128,-1.997c-0.946,-1.295 -1.456,-2.859 -1.456,-4.463c-0,-2.877 1.641,-5.516 4.222,-6.787c0.3,-0.141 0.797,-0.384 1.462,-0.375c0.949,0.007 1.842,0.459 2.41,1.219c0.377,0.507 0.584,1.121 0.59,1.753c0,-0.019 2.297,-7.463 -7.5,-7.463c-4.115,0 -7.5,3.9 -7.5,7.332c-0.016,1.812 0.372,3.606 1.135,5.25c2.574,5.482 8.917,8.199 14.662,6.281c-1.976,0.624 -4.13,0.35 -5.887,-0.75l-0.01,-0Z" style="fill:url(#_Linear3);fill-rule:nonzero;"/><path d="M9.909,22.622c-0.834,-0.518 -1.557,-1.197 -2.128,-1.997c-0.946,-1.295 -1.456,-2.859 -1.456,-4.463c-0,-2.877 1.641,-5.516 4.222,-6.787c0.3,-0.141 0.797,-0.384 1.462,-0.375c0.949,0.007 1.842,0.459 2.41,1.219c0.377,0.507 0.584,1.121 0.59,1.753c0,-0.019 2.297,-7.463 -7.5,-7.463c-4.115,0 -7.5,3.9 -7.5,7.332c-0.016,1.812 0.372,3.606 1.135,5.25c2.574,5.482 8.917,8.199 14.662,6.281c-1.976,0.624 -4.13,0.35 -5.887,-0.75l-0.01,-0Z" style="fill:url(#_Radial4);fill-rule:nonzero;"/><path d="M14.288,13.95c-0.085,0.094 -0.319,0.234 -0.319,0.525c-0,0.244 0.159,0.487 0.45,0.684c1.34,0.938 3.881,0.807 3.89,0.807c1,-0.001 1.981,-0.27 2.841,-0.779c1.76,-1.029 2.847,-2.92 2.85,-4.959c0.028,-2.1 -0.75,-3.497 -1.059,-4.116c-1.997,-3.881 -6.282,-6.112 -10.941,-6.112c-6.52,-0.001 -11.908,5.312 -12,11.831c0.047,-3.422 3.45,-6.187 7.5,-6.187c0.328,-0 2.203,0.028 3.938,0.937c1.218,0.606 2.227,1.563 2.896,2.747c0.572,0.994 0.675,2.259 0.675,2.766c0,0.506 -0.253,1.247 -0.731,1.865l0.009,-0.009Z" style="fill:url(#_Radial5);fill-rule:nonzero;"/><path d="M14.288,13.95c-0.085,0.094 -0.319,0.234 -0.319,0.525c-0,0.244 0.159,0.487 0.45,0.684c1.34,0.938 3.881,0.807 3.89,0.807c1,-0.001 1.981,-0.27 2.841,-0.779c1.76,-1.029 2.847,-2.92 2.85,-4.959c0.028,-2.1 -0.75,-3.497 -1.059,-4.116c-1.997,-3.881 -6.282,-6.112 -10.941,-6.112c-6.52,-0.001 -11.908,5.312 -12,11.831c0.047,-3.422 3.45,-6.187 7.5,-6.187c0.328,-0 2.203,0.028 3.938,0.937c1.218,0.606 2.227,1.563 2.896,2.747c0.572,0.994 0.675,2.259 0.675,2.766c0,0.506 -0.253,1.247 -0.731,1.865l0.009,-0.009Z" style="fill:url(#_Radial6);fill-rule:nonzero;"/><defs><linearGradient id="_Linear1" x1="0" y1="0" x2="1" y2="0" gradientUnits="userSpaceOnUse" gradientTransform="matrix(16.725,0,0,16.725,5.50312,16.5938)"><stop offset="0" style="stop-color:#0c59a4;stop-opacity:1"/><stop offset="1" style="stop-color:#114a8b;stop-opacity:1"/></linearGradient><radialGradient id="_Radial2" cx="0" cy="0" r="1" gradientUnits="userSpaceOnUse" gradientTransform="matrix(8.94375,0,0,-8.49656,14.7375,16.7198)"><stop offset="0" style="stop-color:#000;stop-opacity:0"/><stop offset="0.7" style="stop-color:#000;stop-opacity:0"/><stop offset="0.9" style="stop-color:#000;stop-opacity:0.17"/><stop offset="1" style="stop-color:#000;stop-opacity:0.35"/></radialGradient><linearGradient id="_Linear3" x1="0" y1="0" x2="1" y2="0" gradientUnits="userSpaceOnUse" gradientTransform="matrix(-10.4344,11.3719,-11.3719,-10.4344,14.3156,9.3375)"><stop offset="0" style="stop-color:#1b9de2;stop-opacity:1"/><stop offset="0.2" style="stop-color:#1595df;stop-opacity:1"/><stop offset="0.7" style="stop-color:#0680d7;stop-opacity:1"/><stop offset="1" style="stop-color:#0078d4;stop-opacity:1"/></linearGradient><radialGradient id="_Radial4" cx="0" cy="0" r="1" gradientUnits="userSpaceOnUse" gradientTransform="matrix(2.01375,-13.2907,-10.74,-1.611,6.61453,18.6503)"><stop offset="0" style="stop-color:#000;stop-opacity:0"/><stop offset="0.8" style="stop-color:#000;stop-opacity:0"/><stop offset="0.9" style="stop-color:#000;stop-opacity:0.2"/><stop offset="1" style="stop-color:#000;stop-opacity:0.41"/></radialGradient><radialGradient id="_Radial5" cx="0" cy="0" r="1" gradientUnits="userSpaceOnUse" gradientTransform="matrix(-0.759,18.975,40.4167,1.518,2.42719,4.43588)"><stop offset="0" style="stop-color:#35c1f1;stop-opacity:1"/><stop offset="0.1" style="stop-color:#34c1ed;stop-opacity:1"/><stop offset="0.2" style="stop-color:#2fc2df;stop-opacity:1"/><stop offset="0.3" style="stop-color:#2bc3d2;stop-opacity:1"/><stop offset="0.7" style="stop-color:#36c752;stop-opacity:1"/><stop offset="1" style="stop-color:#36c752;stop-opacity:1"/></radialGradient><radialGradient id="_Radial6" cx="0" cy="0" r="1" gradientUnits="userSpaceOnUse" gradientTransform="matrix(2.55413,8.757,7.11506,-2.09803,22.5056,7.24687)"><stop offset="0" style="stop-color:#66eb6e;stop-opacity:1"/><stop offset="1" style="stop-color:#66eb6e;stop-opacity:0"/></radialGradient></defs></svg>