<?xml version="1.0" encoding="UTF-8" standalone="no"?><!DOCTYPE svg PUBLIC "-//W3C//DTD SVG 1.1//EN" "http://www.w3.org/Graphics/SVG/1.1/DTD/svg11.dtd"><svg width="100%" height="100%" viewBox="0 0 24 24" version="1.1" xmlns="http://www.w3.org/2000/svg" xmlns:xlink="http://www.w3.org/1999/xlink" xml:space="preserve" xmlns:serif="http://www.serif.com/" style="fill-rule:evenodd;clip-rule:evenodd;stroke-linejoin:round;stroke-miterlimit:2;"><ellipse cx="12" cy="12" rx="12" ry="12" style="fill:#fffafa;"/><path d="M21.549,10.005c0.506,-1.498 0.332,-3.14 -0.477,-4.502c-1.216,-2.09 -3.662,-3.165 -6.051,-2.659c-1.062,-1.182 -2.589,-1.853 -4.189,-1.844c-2.442,-0.005 -4.608,1.546 -5.359,3.838c-1.568,0.317 -2.922,1.286 -3.714,2.659c-1.226,2.084 -0.946,4.712 0.691,6.499c-0.506,1.499 -0.332,3.14 0.477,4.502c1.217,2.09 3.662,3.165 6.051,2.659c1.061,1.182 2.589,1.854 4.189,1.843c2.443,0.006 4.61,-1.546 5.361,-3.84c1.569,-0.317 2.922,-1.286 3.715,-2.659c1.224,-2.084 0.944,-4.71 -0.693,-6.498l-0.001,0.002Zm-8.38,11.557c-0.978,0.002 -1.925,-0.336 -2.675,-0.954c0.034,-0.017 0.093,-0.05 0.132,-0.073l4.439,-2.53c0.228,-0.128 0.367,-0.366 0.365,-0.624l0,-6.176l1.876,1.07c0.021,0.009 0.034,0.028 0.037,0.05l0,5.114c-0.003,2.275 -1.87,4.119 -4.174,4.123Zm-8.977,-3.783c-0.49,-0.835 -0.667,-1.813 -0.498,-2.763c0.032,0.02 0.09,0.055 0.131,0.078l4.439,2.53c0.226,0.131 0.505,0.131 0.73,0l5.42,-3.088l0,2.139c0.002,0.022 -0.009,0.043 -0.026,0.057l-4.488,2.556c-1.999,1.136 -4.552,0.461 -5.708,-1.509l-0,0Zm-1.169,-9.563c0.487,-0.836 1.257,-1.475 2.175,-1.807c0,0.038 -0.003,0.104 -0.003,0.151l0,5.061c-0.001,0.258 0.139,0.496 0.365,0.623l5.42,3.088l-1.876,1.069c-0.019,0.012 -0.043,0.014 -0.064,0.005l-4.488,-2.558c-1.995,-1.141 -2.68,-3.659 -1.529,-5.631l-0,-0.001Zm15.416,3.541l-5.42,-3.089l1.877,-1.069c0.019,-0.012 0.043,-0.013 0.063,-0.005l4.489,2.557c1.998,1.139 2.683,3.662 1.529,5.634c-0.489,0.835 -1.258,1.474 -2.175,1.806l0,-5.212c0.002,-0.257 -0.136,-0.495 -0.362,-0.622l-0.001,-0Zm1.868,-2.774c-0.033,-0.02 -0.091,-0.054 -0.132,-0.077l-4.44,-2.53c-0.224,-0.131 -0.503,-0.131 -0.729,-0l-5.42,3.088l0,-2.139c-0.002,-0.022 0.009,-0.043 0.027,-0.057l4.487,-2.554c1.999,-1.138 4.555,-0.461 5.707,1.512c0.487,0.833 0.664,1.809 0.499,2.757l0.001,-0Zm-11.741,3.811l-1.877,-1.069c-0.021,-0.01 -0.033,-0.029 -0.036,-0.051l-0,-5.114c0.001,-2.277 1.874,-4.123 4.181,-4.122c0.976,0 1.921,0.339 2.671,0.955c-0.034,0.018 -0.093,0.05 -0.132,0.073l-4.439,2.53c-0.228,0.128 -0.367,0.366 -0.365,0.623l-0.003,6.173l-0,0.002Zm1.019,-2.169l2.415,-1.376l2.413,1.375l0,2.751l-2.413,1.376l-2.415,-1.376l0,-2.75Z" style="fill-rule:nonzero;"/></svg>