<?xml version="1.0" encoding="UTF-8" standalone="no"?><!DOCTYPE svg PUBLIC "-//W3C//DTD SVG 1.1//EN" "http://www.w3.org/Graphics/SVG/1.1/DTD/svg11.dtd"><svg width="100%" height="100%" viewBox="0 0 24 24" version="1.1" xmlns="http://www.w3.org/2000/svg" xmlns:xlink="http://www.w3.org/1999/xlink" xml:space="preserve" xmlns:serif="http://www.serif.com/" style="fill-rule:evenodd;clip-rule:evenodd;stroke-linejoin:round;stroke-miterlimit:2;"><g><path d="M11.999,0.002c-6.627,-0 -11.999,5.372 -11.999,11.999c0,6.435 5.066,11.688 11.428,11.986c0.19,0.009 0.38,0.014 0.572,0.014c3.072,-0 5.874,-1.156 7.997,-3.054c-1.407,0.933 -3.051,1.469 -4.809,1.469c-2.858,0 -5.417,-1.417 -7.138,-3.653c-1.327,-1.566 -2.186,-3.881 -2.245,-6.479l0,-0.566c0.059,-2.598 0.918,-4.913 2.245,-6.479c1.721,-2.236 4.28,-3.653 7.138,-3.653c1.758,-0 3.402,0.536 4.809,1.47c-2.112,-1.89 -4.897,-3.043 -7.952,-3.054c-0.016,-0 -0.031,-0.001 -0.046,-0.001l0,0.001Z" style="fill:url(#_Linear1);fill-rule:nonzero;"/><path d="M8.05,5.239c1.101,-1.3 2.523,-2.083 4.077,-2.083c3.493,-0 6.325,3.96 6.325,8.846c-0,4.885 -2.832,8.846 -6.325,8.846c-1.554,-0 -2.976,-0.784 -4.077,-2.084c1.721,2.236 4.28,3.653 7.138,3.653c1.758,0 3.402,-0.536 4.809,-1.469c2.456,-2.197 4.002,-5.391 4.002,-8.946c0,-3.555 -1.546,-6.748 -4.001,-8.945c-1.407,-0.934 -3.052,-1.471 -4.81,-1.471c-2.857,0 -5.417,1.418 -7.138,3.654" style="fill:url(#_Linear2);fill-rule:nonzero;"/></g><defs><linearGradient id="_Linear1" x1="0" y1="0" x2="1" y2="0" gradientUnits="userSpaceOnUse" gradientTransform="matrix(1.4242e-15,23.2589,23.2589,-1.4242e-15,-541.374,0.392845)"><stop offset="0" style="stop-color:#ff1b2d;stop-opacity:1"/><stop offset="0.61" style="stop-color:#ff1b2d;stop-opacity:1"/><stop offset="1" style="stop-color:#a70014;stop-opacity:1"/></linearGradient><linearGradient id="_Linear2" x1="0" y1="0" x2="1" y2="0" gradientUnits="userSpaceOnUse" gradientTransform="matrix(1.25963e-15,20.5712,20.5712,-1.25963e-15,-548.574,1.76398)"><stop offset="0" style="stop-color:#9c0000;stop-opacity:1"/><stop offset="0.7" style="stop-color:#ff4b4b;stop-opacity:1"/><stop offset="1" style="stop-color:#ff4b4b;stop-opacity:1"/></linearGradient></defs></svg>