<?xml version="1.0" encoding="UTF-8" standalone="no"?>
<svg
   width="24"
   height="24"
   viewBox="0 0 24 24"
   fill="none"
   version="1.1"
   id="svg2"
   sodipodi:docname="perplexity.svg"
   inkscape:version="1.4 (86a8ad7, 2024-10-11)"
   xmlns:inkscape="http://www.inkscape.org/namespaces/inkscape"
   xmlns:sodipodi="http://sodipodi.sourceforge.net/DTD/sodipodi-0.dtd"
   xmlns="http://www.w3.org/2000/svg"
   xmlns:svg="http://www.w3.org/2000/svg">
  <defs
     id="defs2" />
  <sodipodi:namedview
     id="namedview2"
     pagecolor="#505050"
     bordercolor="#ffffff"
     borderopacity="1"
     inkscape:showpageshadow="0"
     inkscape:pageopacity="0"
     inkscape:pagecheckerboard="1"
     inkscape:deskcolor="#505050"
     showgrid="false"
     inkscape:zoom="1.4370277"
     inkscape:cx="241.47064"
     inkscape:cy="157.26906"
     inkscape:window-width="2880"
     inkscape:window-height="1526"
     inkscape:window-x="2869"
     inkscape:window-y="-11"
     inkscape:window-maximized="1"
     inkscape:current-layer="svg2" />
  <circle
     style="fill:#ffffff;fill-opacity:1;stroke:none;stroke-width:0.0457371;stroke-linecap:round;stroke-linejoin:round"
     id="path2"
     cx="12"
     cy="12"
     r="12" />
  <path
     fill-rule="evenodd"
     clip-rule="evenodd"
     d="m 5.6010131,1.7866503 5.8165679,5.3590994 v -0.00123 -5.3455054 h 1.13226 V 7.1697326 L 18.392458,1.786651 v 6.1101691 h 2.39878 v 8.8133449 h -2.391411 v 5.440806 l -5.849986,-5.139642 v 5.19866 h -1.13226 V 17.096074 L 5.6076065,22.213351 V 16.710165 H 3.2087621 V 7.8968194 h 2.392251 z M 10.56399,9.0152455 H 4.3410154 V 15.591738 H 5.6061843 V 13.517264 Z M 6.7398016,14.013516 v 5.704156 L 11.417581,15.597621 V 9.7647634 Z M 12.58242,15.543128 V 9.7592681 l 4.679136,4.2490129 v 2.701883 h 0.006 v 2.949267 z m 5.817407,0.04861 h 1.259151 V 9.0152455 h -6.17662 l 4.917469,4.4554125 z M 17.260198,7.8968194 V 4.3592703 l -3.839573,3.5375491 z m -6.687416,0 H 6.7332728 V 4.3592703 Z"
     fill="#000000"
     id="path1"
     style="stroke-width:0.0646414" />
</svg>
