<?xml version="1.0" encoding="UTF-8" standalone="no"?>
<svg
   viewBox="0 0 20 20"
   fill="none"
   aria-label="Qwant"
   width="24"
   height="24"
   version="1.1"
   id="svg2"
   sodipodi:docname="qwant.svg"
   inkscape:version="1.4 (86a8ad7, 2024-10-11)"
   xmlns:inkscape="http://www.inkscape.org/namespaces/inkscape"
   xmlns:sodipodi="http://sodipodi.sourceforge.net/DTD/sodipodi-0.dtd"
   xmlns="http://www.w3.org/2000/svg"
   xmlns:svg="http://www.w3.org/2000/svg">
  <defs
     id="defs2" />
  <sodipodi:namedview
     id="namedview2"
     pagecolor="#505050"
     bordercolor="#ffffff"
     borderopacity="1"
     inkscape:showpageshadow="0"
     inkscape:pageopacity="0"
     inkscape:pagecheckerboard="1"
     inkscape:deskcolor="#505050"
     showgrid="false"
     inkscape:zoom="27.291667"
     inkscape:cx="20.99542"
     inkscape:cy="21.068702"
     inkscape:window-width="2880"
     inkscape:window-height="1526"
     inkscape:window-x="2869"
     inkscape:window-y="-11"
     inkscape:window-maximized="1"
     inkscape:current-layer="svg2" />
  <g
     id="g2"
     transform="matrix(0.50665099,0,0,0.50665099,1.2883896,-3.0136865e-8)">
    <path
       d="m 28.27,0 -1.155,4.482 -4.433,1.143 v 0.457 l 4.433,1.144 1.156,4.481 h 0.432 l 1.156,-4.481 4.53,-1.169 V 5.65 L 29.859,4.482 28.703,0 h -0.432 z"
       fill="var(--color-icon-primary, #000)"
       id="path1"
       style="fill:#000000" />
    <path
       fill-rule="evenodd"
       clip-rule="evenodd"
       d="M 25.548,21.02 C 25.548,12.75 19.828,8.492 12.774,8.492 5.719,8.492 0,12.748 0,21.02 c 0,7.68 4.85,11.839 11.126,12.449 3.247,5.312 7.9,6.984 13.028,5.475 l 0.373,-0.47 1.012,-5.054 -0.902,-0.49 c -2.889,2.453 -7.532,2.451 -10.608,0.572 6.466,-0.474 11.519,-4.656 11.519,-12.482 z m -6.063,0 c 0,5.69 -2.178,10.302 -6.71,10.302 -4.767,0 -6.71,-4.613 -6.71,-10.303 0,-5.69 2.022,-10.302 6.71,-10.302 4.823,0 6.71,4.612 6.71,10.302 z"
       fill="var(--color-icon-primary, #000)"
       id="path2"
       style="fill:#000000" />
  </g>
</svg>
