<?xml version="1.0" encoding="UTF-8" standalone="no"?><!DOCTYPE svg PUBLIC "-//W3C//DTD SVG 1.1//EN" "http://www.w3.org/Graphics/SVG/1.1/DTD/svg11.dtd"><svg width="100%" height="100%" viewBox="0 0 24 24" version="1.1" xmlns="http://www.w3.org/2000/svg" xmlns:xlink="http://www.w3.org/1999/xlink" xml:space="preserve" xmlns:serif="http://www.serif.com/" style="fill-rule:evenodd;clip-rule:evenodd;stroke-linejoin:round;stroke-miterlimit:2;"><circle cx="12" cy="12" r="12" style="fill:#fff;"/><path id="path1" d="M18.785,0.945l-0.663,2.571l-2.543,0.656l-0,0.262l2.543,0.656l0.663,2.571l0.248,-0l0.663,-2.571l2.599,-0.67l-0,-0.234l-2.599,-0.67l-0.663,-2.571l-0.248,0Z" style="fill-rule:nonzero;"/><path id="path2" d="M17.223,13.003c0,-4.744 -3.281,-7.186 -7.328,-7.186c-4.047,-0 -7.328,2.441 -7.328,7.186c0,4.406 2.783,6.792 6.383,7.142c1.862,3.047 4.532,4.006 7.473,3.14l0.214,-0.269l0.581,-2.899l-0.518,-0.282c-1.657,1.408 -4.32,1.406 -6.085,0.329c3.709,-0.272 6.608,-2.671 6.608,-7.161Zm-3.478,0c-0,3.264 -1.249,5.91 -3.849,5.91c-2.735,0 -3.849,-2.646 -3.849,-5.91c-0,-3.264 1.159,-5.91 3.849,-5.91c2.766,-0 3.849,2.646 3.849,5.91l-0,0Z"/></svg>