<?xml version="1.0" encoding="UTF-8" standalone="no"?><!DOCTYPE svg PUBLIC "-//W3C//DTD SVG 1.1//EN" "http://www.w3.org/Graphics/SVG/1.1/DTD/svg11.dtd"><svg width="100%" height="100%" viewBox="0 0 56 56" version="1.1" xmlns="http://www.w3.org/2000/svg" xmlns:xlink="http://www.w3.org/1999/xlink" xml:space="preserve" xmlns:serif="http://www.serif.com/" style="fill-rule:evenodd;clip-rule:evenodd;stroke-linejoin:round;stroke-miterlimit:2;"><circle cx="27.8" cy="27.9" r="16.4" style="fill:#fff;"/><path id="path-2" d="M49.2,6.2l0.1,0c4,4.1 6.5,10.8 6.5,21.7c-0,10.9 -2.4,17.6 -6.5,21.7c-5.2,5.2 -12.8,6.2 -21.4,6.2c-8.6,0 -16.3,-1 -21.4,-6.2c-4,-4.1 -6.5,-10.8 -6.5,-21.7c0,-10.9 2.4,-17.6 6.4,-21.7c5.2,-5.2 12.8,-6.2 21.4,-6.2c8.6,0 16.3,1 21.4,6.2Zm-21.4,5.3c-9.051,0 -16.4,7.349 -16.4,16.4c0,9.051 7.349,16.4 16.4,16.4c9.051,0 16.4,-7.349 16.4,-16.4c0,-9.051 -7.349,-16.4 -16.4,-16.4Z" style="fill:url(#_Linear1);"/><path id="path-61" d="M42.877,21.44c-0.299,-0.644 -0.555,-1.151 -0.882,-1.756c0.702,-1.613 0.844,-2.811 0.305,-3.384c-1.6,-1.7 -8.9,2.8 -16.1,10c-7.2,7.2 -11.6,14.4 -10,16.1c0.575,0.611 1.893,0.536 3.673,-0.143c0.661,0.362 0.996,0.515 1.492,0.73c-5.077,3.057 -9.273,4.105 -11.065,2.313c-3.1,-3.1 2.3,-13.3 11.9,-23c9.6,-9.7 19.9,-15 23,-11.9c1.793,1.793 0.738,5.969 -2.323,11.04Z" style="fill:url(#_Linear2);fill-rule:nonzero;"/><defs><linearGradient id="_Linear1" x1="0" y1="0" x2="1" y2="0" gradientUnits="userSpaceOnUse" gradientTransform="matrix(3.52698e-15,57.6,-57.6,3.52698e-15,31.8,-7.2)"><stop offset="0" style="stop-color:#7043ef;stop-opacity:1"/><stop offset="1" style="stop-color:#3e14d8;stop-opacity:1"/></linearGradient><linearGradient id="_Linear2" x1="0" y1="0" x2="1" y2="0" gradientUnits="userSpaceOnUse" gradientTransform="matrix(36.0059,-36.0059,36.0059,36.0059,14.7317,35.3226)"><stop offset="0" style="stop-color:#8e99ff;stop-opacity:1"/><stop offset="1" style="stop-color:#40efef;stop-opacity:1"/></linearGradient></defs></svg>