<?xml version="1.0" encoding="UTF-8" standalone="no"?>
<svg
   width="50"
   height="50"
   viewBox="0 0 50 50"
   fill="none"
   version="1.1"
   id="svg10"
   sodipodi:docname="serpstat.svg"
   inkscape:version="1.4 (86a8ad7, 2024-10-11)"
   xmlns:inkscape="http://www.inkscape.org/namespaces/inkscape"
   xmlns:sodipodi="http://sodipodi.sourceforge.net/DTD/sodipodi-0.dtd"
   xmlns="http://www.w3.org/2000/svg"
   xmlns:svg="http://www.w3.org/2000/svg">
  <defs
     id="defs10" />
  <sodipodi:namedview
     id="namedview10"
     pagecolor="#505050"
     bordercolor="#ffffff"
     borderopacity="1"
     inkscape:showpageshadow="0"
     inkscape:pageopacity="0"
     inkscape:pagecheckerboard="1"
     inkscape:deskcolor="#505050"
     showgrid="false"
     inkscape:zoom="12.76917"
     inkscape:cx="22.201913"
     inkscape:cy="36.024268"
     inkscape:window-width="2880"
     inkscape:window-height="1526"
     inkscape:window-x="2869"
     inkscape:window-y="-11"
     inkscape:window-maximized="1"
     inkscape:current-layer="svg10" />
  <circle
     style="fill:#ffffff;fill-opacity:1;stroke:none;stroke-width:0.667;stroke-linecap:round;stroke-linejoin:round"
     id="path11"
     cx="25"
     cy="25"
     r="25" />
  <path
     fill-rule="evenodd"
     clip-rule="evenodd"
     d="M 45.702134,8.3195919 H 17.013253 l 0.0014,0.00698 c -0.489237,0.019502 -0.882289,0.4220257 -0.882289,0.9206576 0,0.2646403 0.111311,0.5000213 0.287168,0.6685583 l -0.0042,0.0042 6.210894,6.2356742 c 0.361415,0.363527 0.361415,0.955483 0.0014,1.319011 l -10.21856,10.269285 c -0.262504,0.266037 -0.199286,0.714514 0.127823,0.892796 L 13.8082,29.33314 c 0.233591,0.128169 0.599277,0.101725 0.827326,-0.03614 0.316152,-0.190867 0.683107,-0.302294 1.077545,-0.302294 0.270772,0 0.526417,0.05577 0.76278,0.15184 0.133366,0.05427 0.284513,0.03764 0.391667,-0.05993 l 2.425861,-2.221484 c -0.0028,-0.04596 -0.01374,-0.09053 -0.01374,-0.137868 0,-1.184007 0.946951,-2.143659 2.115137,-2.143659 0.984133,0 1.80326,0.68253 2.039623,1.60454 l 2.351616,1.011267 c 0.07275,0.0306 0.152533,0.01813 0.218464,-0.02645 0.339476,-0.239595 0.74904,-0.383121 1.193013,-0.383121 0.210267,0 0.413606,0.03487 0.606091,0.0948 0.07147,0.02368 0.148375,0.007 0.203337,-0.04596 l 4.061355,-4.008587 c 0.05912,-0.05716 0.08937,-0.142141 0.08799,-0.224239 -0.03579,-2.106015 1.499463,-2.349768 2.102783,-2.370667 0.915313,-0.03475 1.68502,0.604589 1.969533,1.441615 0.02887,0.07944 0.08787,0.144911 0.167659,0.174125 l 2.572852,0.891411 c 0.09757,0.03475 0.200683,0.007 0.277585,-0.06132 0.373884,-0.342592 0.867278,-0.552974 1.410091,-0.552974 0.192485,0 0.527804,0.122627 0.722944,-0.09192 l 5.104482,-5.271851 c 0.08937,-0.09053 0.138792,-0.213096 0.138792,-0.342628 V 9.2527843 c 7e-6,-0.515345 -0.412328,-0.9331924 -0.920849,-0.9331924 z"
     fill="#0c63f6"
     id="path9"
     style="stroke-width:1.15468" />
  <path
     fill-rule="evenodd"
     clip-rule="evenodd"
     d="m 46.609134,20.648544 c 0,-0.277007 -0.332432,-0.415453 -0.523877,-0.21604 l -3.24984,3.351912 c -0.07113,0.07205 -0.09849,0.175973 -0.0821,0.277123 0.08348,0.551243 -0.02737,1.16761 -0.750886,1.846329 -0.381621,0.358759 -0.867164,0.605282 -1.388269,0.592811 -0.849381,-0.02356 -1.564704,-0.559556 -1.876582,-1.311713 -0.03279,-0.07898 -0.09434,-0.143988 -0.176435,-0.173086 l -2.684971,-0.932172 c -0.09295,-0.03186 -0.192831,-0.0083 -0.270772,0.05531 -0.361067,0.296406 -0.819243,0.476536 -1.319911,0.476536 -0.22701,0 -0.441779,-0.04572 -0.646967,-0.113621 0,0 -3.063704,3.001585 -4.15245,4.086058 -0.132672,0.134404 -0.134058,0.144103 -0.104033,0.414182 0,1.177309 -0.940947,2.13165 -2.104976,2.13165 -0.983439,0 -1.804069,-0.684146 -2.035235,-1.606618 -0.02459,-0.09422 -0.08476,-0.174588 -0.173663,-0.213384 l -1.994244,-0.855963 c -0.101145,-0.04572 -0.21477,-0.02356 -0.303679,0.04434 -0.35287,0.27285 -0.790493,0.439008 -1.266451,0.439008 -0.227125,0 -0.445936,-0.03741 -0.651122,-0.106576 -0.121703,-0.04018 -0.254375,-0.0194 -0.350099,0.06639 l -2.426438,2.221831 c -0.0821,0.07471 -0.12586,0.178628 -0.1381,0.289476 -0.106694,1.074774 -0.998565,1.914225 -2.089966,1.914225 -0.845339,0 -1.566089,-0.507019 -1.899906,-1.23562 -0.08753,-0.191099 -0.248833,-0.335088 -0.429424,-0.436237 l -2.731437,-1.493111 c -0.214735,-0.117778 -0.478717,-0.0776 -0.651053,0.09549 l -8.0821233,8.090478 -0.00274,0.0028 -0.010946,0.01109 0.00274,0.0014 c -0.1586565,0.16614 -0.2585034,0.39061 -0.2585034,0.639904 0,0.511061 0.4075942,0.925243 0.9136674,0.925243 H 29.209763 c 0.507365,0 1.217261,-0.29502 1.578329,-0.65655 l 0.519835,-0.522144 0.01502,-0.01524 6.221979,-6.242762 c 0.359682,-0.360144 0.946489,-0.360144 1.306171,0 l 6.204196,6.228906 c 0.166852,0.173087 0.396632,0.28255 0.655164,0.28255 0.503325,0 0.913697,-0.412797 0.913697,-0.922471 z"
     fill="#0c63f6"
     id="path10"
     style="stroke-width:1.15468" />
</svg>
