<?xml version="1.0" encoding="UTF-8" standalone="no"?><!DOCTYPE svg PUBLIC "-//W3C//DTD SVG 1.1//EN" "http://www.w3.org/Graphics/SVG/1.1/DTD/svg11.dtd"><svg width="100%" height="100%" viewBox="0 0 32 32" version="1.1" xmlns="http://www.w3.org/2000/svg" xmlns:xlink="http://www.w3.org/1999/xlink" xml:space="preserve" xmlns:serif="http://www.serif.com/" style="fill-rule:evenodd;clip-rule:evenodd;stroke-linejoin:round;stroke-miterlimit:2;"><circle cx="16" cy="16" r="16" style="fill:#ebebeb;"/><path d="M16.276,4.766c-0.759,0.126 -1.512,0.271 -2.267,0.44c-0.498,0.111 -0.993,0.213 -1.485,0.341c-0.452,0.122 -0.915,0.223 -1.36,0.374c-0.43,0.137 -0.851,0.284 -1.27,0.452c-0.826,0.332 -1.59,0.798 -2.263,1.381c-0.42,0.355 -0.796,0.758 -1.121,1.202c-0.223,0.319 -0.424,0.653 -0.599,1.001c-0.181,0.344 -0.28,0.726 -0.29,1.115c-0.004,1.128 0.68,2.071 1.473,2.773c0.264,0.225 0.538,0.438 0.819,0.639c0.846,0.598 1.738,1.128 2.668,1.585c0.948,0.469 1.912,0.921 2.879,1.351c0.919,0.407 1.852,0.75 2.8,1.078c0.274,0.089 0.549,0.181 0.82,0.277c0.862,0.299 1.734,0.569 2.583,0.886c0.534,0.202 1.094,0.386 1.627,0.636c0.565,0.239 1.104,0.538 1.606,0.891c0.329,0.243 0.606,0.551 0.812,0.905c0.208,0.354 0.325,0.754 0.34,1.164c0.012,0.391 -0.091,0.777 -0.298,1.109c-0.534,0.866 -1.462,1.453 -2.355,1.849c-1.331,0.584 -2.696,1.089 -4.086,1.512c-0.798,0.243 -1.589,0.481 -2.39,0.695c-0.801,0.224 -1.619,0.445 -2.426,0.657c-0.808,0.21 -1.616,0.402 -2.427,0.585c-0.461,0.106 -0.931,0.206 -1.392,0.303c-0.277,0.063 -0.549,0.12 -0.827,0.184c-0.581,0.127 -1.159,0.259 -1.746,0.388c-0.66,0.15 -1.322,0.3 -1.988,0.449c-0.188,0.043 -0.386,0.097 -0.574,0.144c-0.172,0.039 -0.814,0.191 -0.336,0.163c0.662,-0.037 2.431,-0.196 6.209,-0.721c1.374,-0.236 2.749,-0.439 4.117,-0.67c1.713,-0.29 3.409,-0.631 5.097,-1.048c0.481,-0.117 0.957,-0.243 1.441,-0.379c0.316,-0.093 0.628,-0.188 0.935,-0.289c1.328,-0.424 3.456,-1.174 3.956,-1.404c1.926,-0.875 3.122,-1.534 3.744,-3.097c0.221,-0.565 0.307,-1.174 0.253,-1.778c-0.066,-0.553 -0.242,-1.088 -0.519,-1.572c-0.275,-0.446 -0.613,-0.85 -1.005,-1.198c-0.697,-0.652 -1.478,-1.208 -2.322,-1.653c-0.237,-0.131 -0.478,-0.252 -0.723,-0.367c-0.307,-0.147 -0.614,-0.282 -0.918,-0.419c-0.435,-0.186 -0.874,-0.35 -1.319,-0.507c-1.155,-0.408 -2.322,-0.772 -3.487,-1.167c-0.655,-0.225 -1.303,-0.465 -1.935,-0.743c-0.272,-0.113 -0.538,-0.24 -0.796,-0.372c-0.308,-0.155 -0.609,-0.324 -0.904,-0.505c-0.363,-0.228 -0.957,-0.622 -0.793,-1.156c0.117,-0.378 0.515,-0.525 0.842,-0.662c0.305,-0.121 0.616,-0.222 0.934,-0.303c0.959,-0.252 1.939,-0.428 2.901,-0.64c0.284,-0.066 0.573,-0.128 0.857,-0.195c0.764,-0.148 1.516,-0.354 2.249,-0.617c0.619,-0.25 1.412,-0.658 1.639,-1.36c0.332,-1.022 -0.039,-2.129 -0.582,-2.994c-0.197,-0.309 -0.398,-0.614 -0.605,-0.919c-0.281,-0.412 -0.597,-0.8 -0.906,-1.194c-0.051,-0.067 -0.123,-0.115 -0.204,-0.136c-0.081,-0.021 -0.167,-0.013 -0.244,0.021c-0.189,0.069 -0.705,0.693 -4.839,1.515Z" style="fill:#c00;"/></svg>