<?xml version="1.0" encoding="UTF-8" standalone="no"?>
<svg
   enable-background="new 0 0 365 365"
   height="24"
   viewBox="0 0 27.701553 27.701553"
   width="24"
   version="1.1"
   id="svg11"
   sodipodi:docname="uc.svg"
   inkscape:version="1.4 (86a8ad7, 2024-10-11)"
   xmlns:inkscape="http://www.inkscape.org/namespaces/inkscape"
   xmlns:sodipodi="http://sodipodi.sourceforge.net/DTD/sodipodi-0.dtd"
   xmlns="http://www.w3.org/2000/svg"
   xmlns:svg="http://www.w3.org/2000/svg">
  <defs
     id="defs11" />
  <sodipodi:namedview
     id="namedview11"
     pagecolor="#505050"
     bordercolor="#ffffff"
     borderopacity="1"
     inkscape:showpageshadow="0"
     inkscape:pageopacity="0"
     inkscape:pagecheckerboard="1"
     inkscape:deskcolor="#505050"
     inkscape:zoom="30.968831"
     inkscape:cx="13.755766"
     inkscape:cy="14.175543"
     inkscape:window-width="2880"
     inkscape:window-height="1526"
     inkscape:window-x="2869"
     inkscape:window-y="-11"
     inkscape:window-maximized="1"
     inkscape:current-layer="svg11" />
  <linearGradient
     id="a"
     gradientTransform="matrix(0,-300,-300,0,144278,-70954.547)"
     gradientUnits="userSpaceOnUse"
     x1="-237.7318"
     x2="-236.5152"
     y1="480.3183"
     y2="480.3183">
    <stop
       offset="0"
       stop-color="#ff780b"
       id="stop1" />
    <stop
       offset="1"
       stop-color="#ffa322"
       id="stop2" />
  </linearGradient>
  <g
     id="g12"
     transform="scale(0.07589467)">
    <path
       d="M 284.9,365 H 80.1 C 35.9,365 0,329.1 0,284.9 V 80.1 C 0,35.9 35.9,0 80.1,0 H 284.9 C 329.1,0 365,35.9 365,80.1 v 204.8 c 0,44.2 -35.9,80.1 -80.1,80.1 z"
       fill="url(#a)"
       id="path2"
       style="fill:url(#a)" />
    <g
       fill="#ffffff"
       id="g11">
      <path
         d="m 141.3,318.1 c -0.4,-0.1 -0.9,-0.3 -1.3,-0.4 -37.7,-10.6 -55.4,-52.5 -45.2,-86.5 5.4,-17.9 17,-31.1 32.1,-41.4 10.2,-6.9 20.7,-13.3 30.9,-20.2 14.5,-9.9 25.5,-22.8 31,-39.8 C 195.5,109 193.3,89.5 178.4,72.9 162.8,55.4 142.6,48.6 119.5,51.6 89.9,55.4 67.7,71 51.6,95.8 c -0.7,1 -1.1,2.1 -1.7,3.2 6.7,-4.3 13.6,-7.1 21.3,-8 15.6,-1.9 30.6,8.4 33.5,23.4 2.3,11.5 -0.7,22.1 -7.6,31.2 -7.3,9.7 -15.4,18.9 -23.3,28.2 -18.3,21.3 -27.8,45.5 -23.8,73.9 3.3,23.9 15.5,42.5 35.3,55.9 16.8,11.3 36,14.6 56,14.5"
         id="path3" />
      <path
         d="m 191.4,164.5 c 10.8,-0.1 21.4,2 31.8,5 14.9,4.3 28.8,10.7 41.9,18.8 12.4,7.7 25.7,9.9 39.9,7.5 2.8,-0.5 5.5,-1.4 8.1,-2.4 0.9,-0.4 2,-1.8 2,-2.8 0.2,-3.4 0.2,-6.9 -0.1,-10.3 -1,-11.6 -4.7,-22.3 -11.3,-31.9 -8,-11.7 -19.2,-19 -32.4,-23.5 -2.2,-0.8 -3.1,-1.9 -3.5,-4 -0.6,-3 -1.5,-5.9 -2.5,-8.8 -2,-5.4 -4.7,-10.5 -9.3,-14.7 -0.8,1 -1.6,1.8 -2.2,2.7 -6.3,9 -8.8,19.3 -8.8,30.1 0,3.1 -0.9,5.4 -3.4,7 -6.9,4.5 -13.5,9.5 -20.8,13.4 -9.4,5.2 -19.5,9.4 -29.4,13.9"
         id="path4" />
      <path
         d="m 229,295.7 c 3.3,-9.6 4.9,-18.8 4.8,-28.3 -0.1,-12.5 -2.3,-24.6 -8.6,-35.4 -14.3,-24.4 -35.7,-37.1 -64.2,-36.9 -14.1,0.1 -26.6,4.9 -36.9,14.9 -5,4.9 -8.9,10.6 -11.8,17.8 26.8,-28.3 70.3,-19.8 86.9,5.7 10.1,15.5 12.6,32.1 6.6,49.6 -6,17.6 -19,28.5 -36.1,35.2 31.9,-0.1 63.6,-0.5 96.1,-3.5 C 258,299 243.9,296.8 229,295.7"
         id="path5" />
      <path
         d="m 316.4,229.3 c -0.3,-5.8 -3.2,-9.7 -7.5,-12.6 -5.3,-3.5 -11.5,-4.5 -17.7,-5 -11.3,-1 -22.1,-3.7 -32.1,-9.2 -8.5,-4.7 -16.7,-10.1 -25.4,-14.4 -13.8,-6.7 -28.5,-10 -43.7,-11.4 -10.4,-1 -20.6,-0.1 -30.6,3.1 -1.2,0.4 -2.3,1 -3.4,1.5 1.3,0.5 2.4,0.5 3.5,0.5 11.7,-0.3 23.2,1.4 34.2,5.5 22.8,8.7 39.4,24.5 51.1,45.5 1.1,2 2.5,3.5 4.6,3.7 5.3,0.5 10.7,1.2 16.1,0.9 6.9,-0.4 13,-3.5 19.2,-6.4 7.3,-3.4 14.9,-5.1 23,-3.8 2.6,0.6 5.4,1.3 8.7,2.1"
         id="path6" />
      <path
         d="m 141.3,318.1 c -20,0.1 -39.2,-3.2 -56,-14.5 -19.8,-13.4 -32,-32 -35.3,-55.9 -3.9,-28.4 5.5,-52.6 23.9,-73.9 8,-9.2 16,-18.4 23.3,-28.2 6.9,-9.1 9.9,-19.7 7.6,-31.2 C 101.9,99.4 86.9,89.1 71.3,91 63.6,91.9 56.7,94.7 50,99 c 0.6,-1.1 1.1,-2.2 1.7,-3.2 16,-24.8 38.2,-40.5 67.8,-44.3 23.1,-3 43.2,3.8 58.9,21.3 14.9,16.6 17.1,36.1 10.4,56.9 -5.5,17 -16.5,29.9 -31,39.8 -10.2,6.9 -20.7,13.3 -30.9,20.2 -15.1,10.3 -26.7,23.6 -32.1,41.4 -10.3,34 7.5,75.9 45.2,86.5 0.4,0.2 0.8,0.3 1.3,0.5"
         id="path7" />
      <path
         d="m 191.4,164.5 c 9.9,-4.6 19.9,-8.8 29.5,-13.9 7.3,-3.9 13.9,-8.9 20.8,-13.4 2.5,-1.6 3.4,-3.9 3.4,-7 0,-10.8 2.5,-21 8.8,-30.1 0.6,-0.9 1.3,-1.6 2.2,-2.7 4.5,4.2 7.2,9.3 9.3,14.7 1,2.9 1.9,5.8 2.5,8.8 0.5,2.1 1.3,3.3 3.5,4 13.2,4.4 24.4,11.8 32.4,23.5 6.6,9.6 10.3,20.3 11.3,31.9 0.3,3.4 0.3,6.9 0.1,10.3 -0.1,1 -1.1,2.4 -2,2.8 -2.6,1.1 -5.4,2 -8.1,2.4 -14.2,2.4 -27.5,0.2 -39.9,-7.5 -13.1,-8.1 -27,-14.6 -41.9,-18.8 -10.5,-3 -21.1,-5.1 -31.9,-5"
         id="path8" />
      <path
         d="m 229,295.7 c 14.9,1.1 29,3.4 36.9,19 -32.5,2.9 -64.2,3.4 -96.1,3.5 17.1,-6.7 30.1,-17.6 36.1,-35.2 6,-17.5 3.4,-34.1 -6.6,-49.6 -16.6,-25.5 -60.1,-34 -86.9,-5.7 2.9,-7.2 6.7,-12.9 11.8,-17.8 10.2,-10 22.8,-14.8 36.9,-14.9 28.5,-0.2 49.9,12.6 64.2,36.9 6.3,10.8 8.5,22.9 8.6,35.4 0,9.6 -1.6,18.8 -4.9,28.4"
         id="path9" />
      <path
         d="m 316.4,229.3 c -3.3,-0.7 -6.1,-1.5 -8.9,-2 -8,-1.3 -15.7,0.4 -23,3.8 -6.2,2.9 -12.3,6 -19.2,6.4 -5.3,0.3 -10.7,-0.4 -16.1,-0.9 -2.1,-0.2 -3.5,-1.7 -4.6,-3.7 -11.8,-21.1 -28.3,-36.9 -51.1,-45.5 -11,-4.2 -22.4,-5.8 -34.2,-5.5 -1.1,0 -2.1,0 -3.5,-0.5 1.1,-0.5 2.2,-1.1 3.4,-1.5 10,-3.2 20.1,-4.1 30.6,-3.1 15.2,1.4 30,4.7 43.7,11.4 8.7,4.3 16.9,9.7 25.4,14.4 10,5.5 20.8,8.2 32.1,9.2 6.2,0.6 12.4,1.5 17.7,5 4.5,2.8 7.4,6.7 7.7,12.5"
         id="path10" />
      <path
         d="m 152.9,226.4 c -21.5,0 -39,17.4 -39,38.8 -0.1,21.6 17.4,39 39.1,38.9 21.6,0 38.8,-17.3 38.8,-38.9 -0.1,-21.5 -17.4,-38.8 -38.9,-38.8 z m -0.3,56.8 c -9.8,0 -17.8,-8.1 -17.9,-17.9 0,-9.8 8.2,-18 18.1,-18 9.9,0 18,8.2 17.9,18.1 -0.1,10.1 -7.9,17.8 -18.1,17.8 z"
         id="path11" />
    </g>
  </g>
</svg>
