<?xml version="1.0" encoding="UTF-8" standalone="no"?>
<svg
   width="23.999901"
   height="23.999901"
   viewBox="0 0 23.999901 23.999901"
   fill="none"
   version="1.1"
   id="svg11"
   sodipodi:docname="vivaldi.svg"
   inkscape:version="1.4 (86a8ad7, 2024-10-11)"
   xmlns:inkscape="http://www.inkscape.org/namespaces/inkscape"
   xmlns:sodipodi="http://sodipodi.sourceforge.net/DTD/sodipodi-0.dtd"
   xmlns="http://www.w3.org/2000/svg"
   xmlns:svg="http://www.w3.org/2000/svg">
  <sodipodi:namedview
     id="namedview11"
     pagecolor="#505050"
     bordercolor="#ffffff"
     borderopacity="1"
     inkscape:showpageshadow="0"
     inkscape:pageopacity="0"
     inkscape:pagecheckerboard="1"
     inkscape:deskcolor="#505050"
     inkscape:zoom="19.239437"
     inkscape:cx="41.399341"
     inkscape:cy="10.759151"
     inkscape:window-width="2880"
     inkscape:window-height="1526"
     inkscape:window-x="2869"
     inkscape:window-y="-11"
     inkscape:window-maximized="1"
     inkscape:current-layer="svg11" />
  <path
     d="m 11.9999,23.9999 c 5.2586,0 8.1808,0 10.0904,-1.9096 1.9096,-1.9096 1.9096,-4.8318 1.9096,-10.0904 0,-5.25852 0,-8.18075 -1.9096,-10.09033 C 20.1807,0 17.2585,0 11.9999,0 6.74138,0 3.81554,0 1.90958,1.90957 0.00361653,3.81915 0,6.74138 0,11.9999 c 0,5.2586 -1.72454e-7,8.1808 1.90958,10.0904 1.90957,1.9096 4.8318,1.9096 10.09032,1.9096 z"
     fill="#ef3939"
     id="path8" />
  <path
     d="M 18.357,5.63297 C 17.0983,4.37517 15.495,3.51886 13.7499,3.17229 12.0047,2.82572 10.196,3.00445 8.55243,3.68589 6.90881,4.36733 5.50407,5.52088 4.51577,7.00073 3.52747,8.48058 2.99999,10.2203 2.99999,11.9999 c 0,1.7797 0.52748,3.5194 1.51578,4.9993 0.9883,1.4798 2.39304,2.6334 4.03666,3.3148 1.64357,0.6814 3.45227,0.8602 5.19747,0.5136 1.7451,-0.3466 3.3484,-1.2029 4.6071,-2.4607 0.8377,-0.8351 1.5024,-1.8274 1.9559,-2.92 0.4535,-1.0926 0.687,-2.2639 0.687,-3.447 0,-1.183 -0.2335,-2.35436 -0.687,-3.44694 C 19.8594,7.46037 19.1947,6.46808 18.357,5.63297 Z m -0.5395,4.14324 c -1.4846,2.58349 -2.9679,5.16579 -4.45,7.74689 -0.1169,0.2288 -0.2911,0.4235 -0.5056,0.565 -0.2144,0.1415 -0.4619,0.2251 -0.7182,0.2426 -0.283,0.0316 -0.5689,-0.023 -0.8203,-0.1568 C 11.0721,18.0401 10.867,17.8334 10.7352,17.581 9.7974,15.9657 8.86685,14.3396 7.9363,12.717 7.36663,11.7319 6.79937,10.7444 6.23452,9.75448 6.10043,9.53221 6.02649,9.27885 6.01996,9.01933 6.01343,8.75981 6.07454,8.50305 6.19728,8.27431 6.32002,8.04557 6.50017,7.85273 6.72001,7.71473 6.93985,7.57674 7.19181,7.49836 7.45111,7.48729 7.73024,7.47017 8.00836,7.53424 8.25187,7.67178 8.49539,7.80931 8.69389,8.01442 8.8234,8.26234 c 0.42001,0.72434 0.83278,1.44868 1.2456,2.17306 0.3005,0.5215 0.5901,1.043 0.8979,1.5573 0.1957,0.3554 0.4798,0.6542 0.8249,0.8675 0.3452,0.2132 0.7395,0.3335 1.1448,0.3494 0.6156,0.0381 1.2222,-0.1621 1.6941,-0.5593 0.4719,-0.3972 0.7728,-0.9607 0.8405,-1.5739 0,-0.0978 0,-0.1956 0.0217,-0.2463 0.0022,-0.3875 -0.0846,-0.7703 -0.2534,-1.11908 -0.1036,-0.1921 -0.1638,-0.40453 -0.1766,-0.6224 -0.0128,-0.21786 0.0223,-0.43588 0.1027,-0.63875 0.0804,-0.20288 0.2043,-0.38569 0.3628,-0.53562 0.1586,-0.14993 0.348,-0.26333 0.555,-0.33227 0.207,-0.06893 0.4266,-0.09172 0.6434,-0.06676 0.2167,0.02496 0.4254,0.09706 0.6113,0.21124 0.186,0.11418 0.3447,0.26768 0.465,0.44972 0.1203,0.18204 0.1994,0.38822 0.2316,0.60406 0.0408,0.34694 -0.0357,0.69755 -0.2172,0.99597 z"
     fill="#ffffff"
     id="path10" />
  <defs
     id="defs11">
    <linearGradient
       id="paint0_linear"
       x1="7.4818001"
       y1="4.2225299"
       x2="18.940599"
       y2="24.0763"
       gradientUnits="userSpaceOnUse">
      <stop
         stop-opacity="0.2"
         id="stop10" />
      <stop
         offset="0.79"
         stop-opacity="0.05"
         id="stop11" />
    </linearGradient>
  </defs>
</svg>
