<?xml version="1.0" encoding="UTF-8" standalone="no"?><!DOCTYPE svg PUBLIC "-//W3C//DTD SVG 1.1//EN" "http://www.w3.org/Graphics/SVG/1.1/DTD/svg11.dtd"><svg width="100%" height="100%" viewBox="0 0 24 24" version="1.1" xmlns="http://www.w3.org/2000/svg" xmlns:xlink="http://www.w3.org/1999/xlink" xml:space="preserve" xmlns:serif="http://www.serif.com/" style="fill-rule:evenodd;clip-rule:evenodd;stroke-linejoin:round;stroke-miterlimit:2;"><g><g><path d="M10.134,16.857l2.313,-5.727c1.102,-0.061 2.889,0.187 3.996,0.454l-2.379,5.893c-1.08,-0.267 -2.85,-0.592 -3.93,-0.62" style="fill:#3d87cf;fill-rule:nonzero;"/><path d="M20.532,13.89l-2.404,5.92c-0.804,-0.661 -3.007,-1.917 -4.064,-2.332l2.379,-5.893c1.076,0.383 3.375,1.536 4.089,2.305" style="fill:#fac705;fill-rule:nonzero;"/><path d="M22.886,8.406l-2.36,5.485c-0.771,-0.705 -3.001,-1.909 -4.089,-2.305l2.385,-5.904c1.087,0.364 3.356,1.917 4.064,2.724" style="fill:#66c557;fill-rule:nonzero;"/><path d="M12.446,11.134l2.346,-5.797c1.099,-0.038 2.93,0.135 4.034,0.347l-2.384,5.904c-1.093,-0.3 -2.903,-0.477 -3.996,-0.455" style="fill:#f3632e;fill-rule:nonzero;"/><path d="M4.502,13.262l-1.132,-0.019c0.077,-0.228 0.176,-0.485 0.273,-0.699l1.143,-0.003c-0.083,0.234 -0.182,0.487 -0.284,0.721" style="fill:#3d87cf;fill-rule:nonzero;"/><path d="M6.25,14.207l-1.426,-0.008l0.399,-0.97c0.471,-0.002 0.947,0 1.421,0.017l-0.394,0.961" style="fill:#3d87cf;fill-rule:nonzero;"/><path d="M8.619,13.967c-0.166,0.38 -0.306,0.788 -0.477,1.171l-1.605,-0.02l0.474,-1.162l1.608,0.011" style="fill:#3d87cf;fill-rule:nonzero;"/><path d="M2.979,12.099l-0.823,-0.005c0.066,-0.19 0.149,-0.402 0.234,-0.592c0.281,-0.003 0.562,-0.02 0.843,-0.009l-0.254,0.606" style="fill:#3d87cf;fill-rule:nonzero;"/><path d="M1.492,10.894c-0.212,0.005 -0.427,0.027 -0.639,0.022l0.207,-0.501c0.212,-0.011 0.424,-0.022 0.636,-0.022l-0.204,0.501" style="fill:#3d87cf;fill-rule:nonzero;"/><path d="M5.249,11.401l-1.134,-0.013l0.272,-0.697c0.386,0.011 0.771,-0.011 1.154,0.003l-0.292,0.707" style="fill:#3d87cf;fill-rule:nonzero;"/><path d="M6.99,12.36l-1.415,-0.006l0.383,-0.963c0.476,-0.003 0.953,-0.006 1.429,0.005l-0.397,0.964" style="fill:#3d87cf;fill-rule:nonzero;"/><path d="M8.901,13.269l-1.611,-0.035l0.468,-1.143l1.605,0.016l-0.462,1.162" style="fill:#3d87cf;fill-rule:nonzero;"/><path d="M3.762,10.175c-0.276,-0.008 -0.559,0.014 -0.837,-0.003l0.253,-0.625l0.821,0.022c-0.061,0.195 -0.146,0.41 -0.237,0.606" style="fill:#3d87cf;fill-rule:nonzero;"/><path d="M2.267,8.976l-0.636,0.014l0.196,-0.498c0.206,-0.019 0.429,-0.019 0.644,-0.019l-0.204,0.503" style="fill:#3d87cf;fill-rule:nonzero;"/><path d="M6.793,7.581l-1.137,-0.008l0.278,-0.711c0.383,0.006 0.765,0 1.151,0.008l-0.292,0.711" style="fill:#f3632e;fill-rule:nonzero;"/><path d="M7.124,8.539l0.383,-0.974l1.418,-0l-0.383,0.974l-1.418,0" style="fill:#f3632e;fill-rule:nonzero;"/><path d="M10.466,9.385l-1.611,-0.011l0.465,-1.159l1.608,0.006l-0.463,1.164" style="fill:#f3632e;fill-rule:nonzero;"/><path d="M5.313,6.34c-0.27,0.014 -0.554,0 -0.829,0.006l0.231,-0.617c0.27,-0.022 0.556,0.011 0.829,0.003l-0.231,0.608" style="fill:#f3632e;fill-rule:nonzero;"/><path d="M3.811,5.135c-0.212,0.005 -0.424,0.027 -0.639,0.019l0.21,-0.501l0.63,-0.03l-0.201,0.512" style="fill:#f3632e;fill-rule:nonzero;"/><path d="M7.561,5.678c-0.38,-0 -0.76,-0.006 -1.14,-0.022l0.281,-0.697c0.383,0.006 0.766,-0.008 1.148,0.003l-0.289,0.716" style="fill:#f3632e;fill-rule:nonzero;"/><path d="M9.302,6.636c-0.473,0 -0.95,0.008 -1.426,-0.005l0.397,-0.97c0.476,-0.005 0.95,0.003 1.426,0.006l-0.397,0.969" style="fill:#f3632e;fill-rule:nonzero;"/><path d="M11.199,7.56l-1.6,-0.017l0.465,-1.165l1.611,0.011l-0.476,1.171" style="fill:#f3632e;fill-rule:nonzero;"/><path d="M6.074,4.437l-0.832,-0l0.245,-0.625c0.281,0.014 0.557,-0 0.835,0.016l-0.248,0.609" style="fill:#f3632e;fill-rule:nonzero;"/><path d="M4.587,3.224l-0.639,0.028l0.198,-0.504c0.212,-0.025 0.427,-0.014 0.639,-0.027l-0.198,0.503" style="fill:#f3632e;fill-rule:nonzero;"/><path d="M3.783,15.208c-0.449,0.006 -0.9,0.003 -1.352,-0.011l0.322,-0.799c0.452,0 0.906,0.014 1.363,0.009l-0.333,0.801" style="fill-rule:nonzero;"/><path d="M14.124,6.354l-2.024,0.014l0.711,-1.765c0.688,-0.077 1.382,-0.152 2.073,-0.129l-0.76,1.88" style="fill-rule:nonzero;"/><path d="M5.383,1.413l-0.768,0.016l0.223,-0.57c0.259,-0.005 0.518,-0.016 0.776,-0.016l-0.231,0.57" style="fill-rule:nonzero;"/><path d="M6.913,2.541c-0.342,-0.011 -0.683,-0.009 -1.027,-0.022l0.27,-0.661c0.344,0.011 0.688,-0.006 1.032,0.016l-0.275,0.667" style="fill-rule:nonzero;"/><path d="M12.066,5.734l-1.914,-0.008l0.556,-1.391l1.917,0.017l-0.559,1.382" style="fill-rule:nonzero;"/><path d="M8.478,4.761l0.415,-1.052l1.688,0.003l-0.424,1.06l-1.679,-0.011" style="fill-rule:nonzero;"/><path d="M8.393,3.795l-1.355,-0.011l0.314,-0.793c0.452,0 0.906,-0.016 1.363,0l-0.322,0.804" style="fill-rule:nonzero;"/><path d="M13.384,8.194c-0.675,0.017 -1.352,0.028 -2.03,0.03l0.661,-1.633l2.019,-0.008l-0.65,1.611" style="fill-rule:nonzero;"/><path d="M12.623,10.069l-2.024,0.028l-0.011,-0.006l0.655,-1.633l2.04,-0.03l-0.66,1.641" style="fill-rule:nonzero;"/><path d="M2.324,7.108l0.223,-0.564l0.779,-0.028l-0.228,0.581l-0.774,0.011" style="fill-rule:nonzero;"/><path d="M9.845,11.951l0.653,-1.627l2.026,-0.025l-0.647,1.63l-2.032,0.022" style="fill-rule:nonzero;"/><path d="M4.594,8.279l-1.027,-0.014l0.269,-0.661c0.345,0.011 0.686,-0.006 1.03,0.017l-0.272,0.658" style="fill-rule:nonzero;"/><path d="M9.754,11.451l-1.914,-0.014l0.551,-1.382l1.919,0.016l-0.556,1.38" style="fill-rule:nonzero;"/><path d="M7.843,10.506l-1.671,-0.006l-0.014,-0.005l0.427,-1.049l1.685,0.003l-0.427,1.057" style="fill-rule:nonzero;"/><path d="M6.074,9.54l-1.352,-0.013l0.311,-0.793c0.457,-0.006 0.917,-0.003 1.374,0.005l-0.333,0.802" style="fill-rule:nonzero;"/><path d="M11.114,13.819l-0.008,0.019l-2.027,0.025l0.664,-1.671l2.037,-0.022l-0.666,1.649" style="fill-rule:nonzero;"/><path d="M10.353,15.701l-2.032,0.05l-0.014,-0.006l0.674,-1.655l2.024,-0.019l-0.652,1.63" style="fill-rule:nonzero;"/><path d="M0.773,12.839c-0.256,-0.008 -0.512,0.017 -0.768,0l0.223,-0.545c0.261,-0.022 0.523,-0.016 0.787,-0.027l-0.242,0.572" style="fill-rule:nonzero;"/><path d="M9.542,17.703c-0.677,-0.016 -1.352,-0.022 -2.032,0.033l0.708,-1.756l2.04,-0.036l-0.716,1.759" style="fill-rule:nonzero;"/><path d="M2.282,14.024l-1.036,0.005l0.256,-0.658c0.35,0 0.694,-0.011 1.044,-0.003l-0.264,0.656" style="fill-rule:nonzero;"/><path d="M7.456,17.139l-1.906,-0.027l0.559,-1.38l1.906,0.02l-0.559,1.387" style="fill-rule:nonzero;"/><path d="M3.875,16.174l0.426,-1.063l1.677,0.011l-0.426,1.065l-1.677,-0.013" style="fill-rule:nonzero;"/><path d="M21.836,8.709c-0.708,-0.807 -1.691,-1.38 -2.779,-1.741l-1.701,4.211c1.085,0.399 2.043,0.947 2.814,1.649l1.666,-4.119Zm-2.209,5.493c-0.713,-0.768 -1.734,-1.313 -2.808,-1.696l-1.729,4.301c1.054,0.416 2.043,0.909 2.847,1.569l1.69,-4.174Zm4.373,-5.984l-5.405,13.378c-1.402,-1.911 -3.839,-3.117 -6.287,-3.575c-0.842,-0.154 -1.688,-0.269 -2.53,-0.302l0.708,-1.741c1.079,0.031 2.161,0.157 3.241,0.427l1.745,-4.326c-1.107,-0.267 -2.211,-0.3 -3.312,-0.239l0.567,-1.421c1.09,-0.022 2.184,0.047 3.277,0.347l1.685,-4.166c-1.104,-0.215 -2.208,-0.292 -3.307,-0.254l0.754,-1.883c2.506,-0.011 5.406,0.688 7.46,2.351c0.52,0.413 0.999,0.871 1.404,1.405"/></g></g></svg>