<?xml version="1.0" encoding="UTF-8" standalone="no"?><!DOCTYPE svg PUBLIC "-//W3C//DTD SVG 1.1//EN" "http://www.w3.org/Graphics/SVG/1.1/DTD/svg11.dtd"><svg width="100%" height="100%" viewBox="0 0 24 24" version="1.1" xmlns="http://www.w3.org/2000/svg" xmlns:xlink="http://www.w3.org/1999/xlink" xml:space="preserve" xmlns:serif="http://www.serif.com/" style="fill-rule:evenodd;clip-rule:evenodd;stroke-linejoin:round;stroke-miterlimit:2;"><path d="M12,0c6.628,0 12,5.373 12,12c-0,6.628 -5.372,12 -12,12c-6.628,-0 -12,-5.372 -12,-12c0,-6.627 5.372,-12 12,-12Z" style="fill:#720e9e;fill-rule:nonzero;"/><path d="M17.494,9.473l0.013,-0.003l0.398,-0.442l-0.02,-0.002l0.042,-0.066l-5.569,0l0.215,0.762l1.52,0l-2.558,2.367c-0.522,-0.762 -1.745,-2.511 -2.599,-3.824l1.586,0l0,-0.54l0.022,-0.155l-0.022,-0.003l0,-0.063l-6.021,-0l-0,0.761l1.883,0c0.731,0.604 3.901,4.453 4.017,4.82c0.046,0.345 0.113,2.376 -0.024,2.529c-0.164,0.237 -1.88,0.109 -2.182,0.132l-0.011,0.746c0.552,0.016 2.208,-0.001 2.767,-0.001c1.101,0 3.029,-0.028 3.3,-0.007l0.034,-0.706l-2.216,-0.033c-0.046,-0.321 -0.097,-2.342 -0.051,-2.562c0.209,-0.64 3.61,-3.288 3.959,-3.387l0.33,-0.074l1.027,-0c-0,-0.001 0.16,-0.249 0.16,-0.249Zm-0.831,5.28l0.963,0.074l1.123,-4.118c-0.187,-0.007 -1.891,-0.159 -2.112,-0.2l0.026,4.244Zm-0.166,0.66l0.005,1.006l0.488,0.041l0.526,0.036l0.155,-0.984l-0.555,-0.025c-0,-0 -0.619,-0.074 -0.619,-0.074Z" style="fill:#fff;fill-rule:nonzero;"/></svg>