<?xml version="1.0" encoding="UTF-8" standalone="no"?><!DOCTYPE svg PUBLIC "-//W3C//DTD SVG 1.1//EN" "http://www.w3.org/Graphics/SVG/1.1/DTD/svg11.dtd"><svg width="100%" height="100%" viewBox="0 0 24 24" version="1.1" xmlns="http://www.w3.org/2000/svg" xmlns:xlink="http://www.w3.org/1999/xlink" xml:space="preserve" xmlns:serif="http://www.serif.com/" style="fill-rule:evenodd;clip-rule:evenodd;stroke-linejoin:round;stroke-miterlimit:2;"><path d="M0,12c0,-6.628 5.371,-12 12,-12c6.626,0 12,5.372 12,12c0,6.628 -5.374,12 -12,12c-6.629,0 -12,-5.372 -12,-12Z" style="fill:#fc3f1d;fill-rule:nonzero;"/><path d="M13.536,6.799l-1.109,0c-2.033,0 -3.102,1.03 -3.102,2.548c0,1.716 0.739,2.52 2.257,3.551l1.254,0.844l-3.603,5.385l-2.693,-0l3.234,-4.817c-1.86,-1.333 -2.904,-2.628 -2.904,-4.818c0,-2.746 1.914,-4.62 5.544,-4.62l3.604,0l-0,14.242l-2.482,-0l0,-12.315Z" style="fill:#fff;fill-rule:nonzero;"/></svg>